solid exported
	facet normal 0 0 -1
		outer loop
			vertex -105.28197479248047 -99.40805053710938 0
			vertex -105.40210723876953 -99.11804962158203 0
			vertex -103.5 -100.5 0
		endloop
	endfacet
	facet normal 0 0 -1
		outer loop
			vertex -105.40210723876953 -99.11804962158203 0
			vertex -105.47543334960938 -98.81250762939453 0
			vertex -103.5 -100.5 0
		endloop
	endfacet
	facet normal 0 0 -1
		outer loop
			vertex -105.47543334960938 -98.81250762939453 0
			vertex -105.5 -98.5 0
			vertex -103.5 -100.5 0
		endloop
	endfacet
	facet normal 0 0 -1
		outer loop
			vertex -104.91364288330078 -99.91478729248047 0
			vertex -103.5 -100.5 0
			vertex -104.67565155029297 -100.11797332763672 0
		endloop
	endfacet
	facet normal 0 0 -1
		outer loop
			vertex -104.91364288330078 -99.91478729248047 0
			vertex -105.11797332763672 -99.67565155029297 0
			vertex -103.5 -100.5 0
		endloop
	endfacet
	facet normal 0 0 -1
		outer loop
			vertex -105.11797332763672 -99.67565155029297 0
			vertex -105.28197479248047 -99.40805053710938 0
			vertex -103.5 -100.5 0
		endloop
	endfacet
	facet normal 0 0 -1
		outer loop
			vertex -104.67565155029297 -100.11797332763672 0
			vertex -103.5 -100.5 0
			vertex -104.40805053710938 -100.28197479248047 0
		endloop
	endfacet
	facet normal 0 0 -1
		outer loop
			vertex -104.40805053710938 -100.28197479248047 0
			vertex -103.5 -100.5 0
			vertex -104.11804962158203 -100.40210723876953 0
		endloop
	endfacet
	facet normal 0 0 -1
		outer loop
			vertex -104.11804962158203 -100.40210723876953 0
			vertex -103.5 -100.5 0
			vertex -103.81250762939453 -100.47543334960938 0
		endloop
	endfacet
	facet normal -0.7602658598775068 -0.649612055233518 0
		outer loop
			vertex -104.91364288330078 -99.91478729248047 0
			vertex -104.91364288330078 -99.91478729248047 5
			vertex -105.11797332763672 -99.67565155029297 0
		endloop
	endfacet
	facet normal -0.6493043444596537 -0.7605286768201576 0
		outer loop
			vertex -104.91364288330078 -99.91478729248047 0
			vertex -104.67565155029297 -100.11797332763672 0
			vertex -104.67565155029297 -100.11797332763672 5
		endloop
	endfacet
	facet normal -0.8526183708288859 -0.5225341268521093 0
		outer loop
			vertex -105.11797332763672 -99.67565155029297 0
			vertex -105.11797332763672 -99.67565155029297 5
			vertex -105.28197479248047 -99.40805053710938 0
		endloop
	endfacet
	facet normal -0.9238681178988855 -0.3827109885147944 0
		outer loop
			vertex -105.28197479248047 -99.40805053710938 0
			vertex -105.28197479248047 -99.40805053710938 5
			vertex -105.40210723876953 -99.11804962158203 0
		endloop
	endfacet
	facet normal -0.9723901670935566 -0.23336101418138663 0
		outer loop
			vertex -105.40210723876953 -99.11804962158203 0
			vertex -105.40210723876953 -99.11804962158203 5
			vertex -105.47543334960938 -98.81250762939453 0
		endloop
	endfacet
	facet normal -0.5225341268521093 -0.8526183708288859 0
		outer loop
			vertex -104.67565155029297 -100.11797332763672 0
			vertex -104.40805053710938 -100.28197479248047 0
			vertex -104.40805053710938 -100.28197479248047 5
		endloop
	endfacet
	facet normal -0.3827109885147944 -0.9238681178988855 0
		outer loop
			vertex -104.40805053710938 -100.28197479248047 0
			vertex -104.11804962158203 -100.40210723876953 0
			vertex -104.11804962158203 -100.40210723876953 5
		endloop
	endfacet
	facet normal -0.23336101418138663 -0.9723901670935566 0
		outer loop
			vertex -104.11804962158203 -100.40210723876953 0
			vertex -103.81250762939453 -100.47543334960938 0
			vertex -103.81250762939453 -100.47543334960938 5
		endloop
	endfacet
	facet normal -0.9969243745005468 -0.07836958291769636 0
		outer loop
			vertex -105.47543334960938 -98.81250762939453 0
			vertex -105.47543334960938 -98.81250762939453 5
			vertex -105.5 -98.5 0
		endloop
	endfacet
	facet normal -0.07836958291769636 -0.9969243745005468 0
		outer loop
			vertex -103.81250762939453 -100.47543334960938 0
			vertex -103.5 -100.5 0
			vertex -103.5 -100.5 5
		endloop
	endfacet
	facet normal -1 0 0
		outer loop
			vertex -105.5 -98.5 0
			vertex -105.5 -98.5 5
			vertex -105.5 98.5 0
		endloop
	endfacet
	facet normal 0 0 -1
		outer loop
			vertex -105.5 -98.5 0
			vertex 105.5 -98.5 0
			vertex -103.5 -100.5 0
		endloop
	endfacet
	facet normal -0.7602658598775068 -0.649612055233518 0
		outer loop
			vertex -105.11797332763672 -99.67565155029297 0
			vertex -104.91364288330078 -99.91478729248047 5
			vertex -105.11797332763672 -99.67565155029297 5
		endloop
	endfacet
	facet normal -0.6493043444596537 -0.7605286768201576 0
		outer loop
			vertex -104.91364288330078 -99.91478729248047 0
			vertex -104.67565155029297 -100.11797332763672 5
			vertex -104.91364288330078 -99.91478729248047 5
		endloop
	endfacet
	facet normal -0.8526183708288859 -0.5225341268521093 0
		outer loop
			vertex -105.28197479248047 -99.40805053710938 0
			vertex -105.11797332763672 -99.67565155029297 5
			vertex -105.28197479248047 -99.40805053710938 5
		endloop
	endfacet
	facet normal -0.9238681178988855 -0.3827109885147944 0
		outer loop
			vertex -105.40210723876953 -99.11804962158203 0
			vertex -105.28197479248047 -99.40805053710938 5
			vertex -105.40210723876953 -99.11804962158203 5
		endloop
	endfacet
	facet normal -0.5225341268521093 -0.8526183708288859 0
		outer loop
			vertex -104.67565155029297 -100.11797332763672 0
			vertex -104.40805053710938 -100.28197479248047 5
			vertex -104.67565155029297 -100.11797332763672 5
		endloop
	endfacet
	facet normal -0.3827109885147944 -0.9238681178988855 0
		outer loop
			vertex -104.40805053710938 -100.28197479248047 0
			vertex -104.11804962158203 -100.40210723876953 5
			vertex -104.40805053710938 -100.28197479248047 5
		endloop
	endfacet
	facet normal -0.23336101418138663 -0.9723901670935566 0
		outer loop
			vertex -104.11804962158203 -100.40210723876953 0
			vertex -103.81250762939453 -100.47543334960938 5
			vertex -104.11804962158203 -100.40210723876953 5
		endloop
	endfacet
	facet normal -0.9723901670935566 -0.23336101418138663 0
		outer loop
			vertex -105.47543334960938 -98.81250762939453 0
			vertex -105.40210723876953 -99.11804962158203 5
			vertex -105.47543334960938 -98.81250762939453 5
		endloop
	endfacet
	facet normal -0.9969243745005468 -0.07836958291769636 0
		outer loop
			vertex -105.5 -98.5 0
			vertex -105.47543334960938 -98.81250762939453 5
			vertex -105.5 -98.5 5
		endloop
	endfacet
	facet normal -0.07836958291769636 -0.9969243745005468 0
		outer loop
			vertex -103.81250762939453 -100.47543334960938 0
			vertex -103.5 -100.5 5
			vertex -103.81250762939453 -100.47543334960938 5
		endloop
	endfacet
	facet normal 0 0 1
		outer loop
			vertex -105.28197479248047 -99.40805053710938 5
			vertex -103.5 -100.5 5
			vertex -105.40210723876953 -99.11804962158203 5
		endloop
	endfacet
	facet normal 0 0 1
		outer loop
			vertex -105.40210723876953 -99.11804962158203 5
			vertex -103.5 -100.5 5
			vertex -105.47543334960938 -98.81250762939453 5
		endloop
	endfacet
	facet normal 0 0 1
		outer loop
			vertex -105.47543334960938 -98.81250762939453 5
			vertex -103.5 -100.5 5
			vertex -105.5 -98.5 5
		endloop
	endfacet
	facet normal 0 0 1
		outer loop
			vertex -104.91364288330078 -99.91478729248047 5
			vertex -104.67565155029297 -100.11797332763672 5
			vertex -103.5 -100.5 5
		endloop
	endfacet
	facet normal 0 0 1
		outer loop
			vertex -104.91364288330078 -99.91478729248047 5
			vertex -103.5 -100.5 5
			vertex -105.11797332763672 -99.67565155029297 5
		endloop
	endfacet
	facet normal 0 0 1
		outer loop
			vertex -105.11797332763672 -99.67565155029297 5
			vertex -103.5 -100.5 5
			vertex -105.28197479248047 -99.40805053710938 5
		endloop
	endfacet
	facet normal 0 0 1
		outer loop
			vertex -104.67565155029297 -100.11797332763672 5
			vertex -104.40805053710938 -100.28197479248047 5
			vertex -103.5 -100.5 5
		endloop
	endfacet
	facet normal 0 0 1
		outer loop
			vertex -104.40805053710938 -100.28197479248047 5
			vertex -104.11804962158203 -100.40210723876953 5
			vertex -103.5 -100.5 5
		endloop
	endfacet
	facet normal 0 0 1
		outer loop
			vertex -105.5 -98.5 5
			vertex -103.11797332763672 -97.67565155029297 5
			vertex -103.28197479248047 -97.40805053710938 5
		endloop
	endfacet
	facet normal 0 0 1
		outer loop
			vertex -105.5 -98.5 5
			vertex -103.28197479248047 -97.40805053710938 5
			vertex -103.40210723876953 -97.11804962158203 5
		endloop
	endfacet
	facet normal 0 0 1
		outer loop
			vertex -105.5 -98.5 5
			vertex -103.40210723876953 -97.11804962158203 5
			vertex -103.47543334960938 -96.81250762939453 5
		endloop
	endfacet
	facet normal 0 0 1
		outer loop
			vertex -104.11804962158203 -100.40210723876953 5
			vertex -103.81250762939453 -100.47543334960938 5
			vertex -103.5 -100.5 5
		endloop
	endfacet
	facet normal 0 0 1
		outer loop
			vertex -105.5 -98.5 5
			vertex -103.5 -100.5 5
			vertex -101.5 -98.5 5
		endloop
	endfacet
	facet normal 0 0 1
		outer loop
			vertex -105.5 -98.5 5
			vertex -102.67565155029297 -98.11797332763672 5
			vertex -102.91478729248047 -97.91364288330078 5
		endloop
	endfacet
	facet normal 0 0 1
		outer loop
			vertex -105.5 -98.5 5
			vertex -102.40805053710938 -98.28197479248047 5
			vertex -102.67565155029297 -98.11797332763672 5
		endloop
	endfacet
	facet normal 0 0 1
		outer loop
			vertex -105.5 -98.5 5
			vertex -102.11804962158203 -98.40210723876953 5
			vertex -102.40805053710938 -98.28197479248047 5
		endloop
	endfacet
	facet normal 0 0 1
		outer loop
			vertex -105.5 -98.5 5
			vertex -101.81250762939453 -98.47543334960938 5
			vertex -102.11804962158203 -98.40210723876953 5
		endloop
	endfacet
	facet normal 0 0 1
		outer loop
			vertex -105.5 -98.5 5
			vertex -102.91478729248047 -97.91364288330078 5
			vertex -103.11797332763672 -97.67565155029297 5
		endloop
	endfacet
	facet normal 0 0 1
		outer loop
			vertex -105.5 -98.5 5
			vertex -101.5 -98.5 5
			vertex -101.81250762939453 -98.47543334960938 5
		endloop
	endfacet
	facet normal 0 0 1
		outer loop
			vertex -105.5 -98.5 5
			vertex -103.47543334960938 -96.81250762939453 5
			vertex -103.5 -96.5 5
		endloop
	endfacet
	facet normal 0 0 1
		outer loop
			vertex -105.5 -98.5 5
			vertex -103.5 -96.5 5
			vertex -103.5 96.5 5
		endloop
	endfacet
	facet normal 0 -1 0
		outer loop
			vertex -103.5 -100.5 0
			vertex 103.5 -100.5 5
			vertex -103.5 -100.5 5
		endloop
	endfacet
	facet normal 0 0 1
		outer loop
			vertex -103.5 -100.5 5
			vertex 101.5 -98.5 5
			vertex -101.5 -98.5 5
		endloop
	endfacet
	facet normal 0 0 -1
		outer loop
			vertex -105.5 98.5 0
			vertex -105.47543334960938 98.81250762939453 0
			vertex -103.5 100.5 0
		endloop
	endfacet
	facet normal 0 0 -1
		outer loop
			vertex -105.47543334960938 98.81250762939453 0
			vertex -105.40210723876953 99.11804962158203 0
			vertex -103.5 100.5 0
		endloop
	endfacet
	facet normal 0 0 -1
		outer loop
			vertex -105.40210723876953 99.11804962158203 0
			vertex -105.28197479248047 99.40805053710938 0
			vertex -103.5 100.5 0
		endloop
	endfacet
	facet normal 0 0 -1
		outer loop
			vertex -105.28197479248047 99.40805053710938 0
			vertex -105.11797332763672 99.67565155029297 0
			vertex -103.5 100.5 0
		endloop
	endfacet
	facet normal 0 0 -1
		outer loop
			vertex -105.11797332763672 99.67565155029297 0
			vertex -104.91364288330078 99.91478729248047 0
			vertex -103.5 100.5 0
		endloop
	endfacet
	facet normal 0 0 -1
		outer loop
			vertex -104.91364288330078 99.91478729248047 0
			vertex -104.67565155029297 100.11797332763672 0
			vertex -103.5 100.5 0
		endloop
	endfacet
	facet normal 0 0 -1
		outer loop
			vertex -104.67565155029297 100.11797332763672 0
			vertex -104.40805053710938 100.28197479248047 0
			vertex -103.5 100.5 0
		endloop
	endfacet
	facet normal 0 0 -1
		outer loop
			vertex -104.40805053710938 100.28197479248047 0
			vertex -104.11804962158203 100.40210723876953 0
			vertex -103.5 100.5 0
		endloop
	endfacet
	facet normal 0 0 -1
		outer loop
			vertex -104.11804962158203 100.40210723876953 0
			vertex -103.81250762939453 100.47543334960938 0
			vertex -103.5 100.5 0
		endloop
	endfacet
	facet normal -0.9969243745005468 0.07836958291769636 0
		outer loop
			vertex -105.5 98.5 0
			vertex -105.5 98.5 5
			vertex -105.47543334960938 98.81250762939453 0
		endloop
	endfacet
	facet normal -0.9723901670935566 0.23336101418138663 0
		outer loop
			vertex -105.47543334960938 98.81250762939453 0
			vertex -105.47543334960938 98.81250762939453 5
			vertex -105.40210723876953 99.11804962158203 0
		endloop
	endfacet
	facet normal -0.9238681178988855 0.3827109885147944 0
		outer loop
			vertex -105.40210723876953 99.11804962158203 0
			vertex -105.40210723876953 99.11804962158203 5
			vertex -105.28197479248047 99.40805053710938 0
		endloop
	endfacet
	facet normal -0.8526183708288859 0.5225341268521093 0
		outer loop
			vertex -105.28197479248047 99.40805053710938 0
			vertex -105.28197479248047 99.40805053710938 5
			vertex -105.11797332763672 99.67565155029297 0
		endloop
	endfacet
	facet normal -0.7602658598775068 0.649612055233518 0
		outer loop
			vertex -105.11797332763672 99.67565155029297 0
			vertex -105.11797332763672 99.67565155029297 5
			vertex -104.91364288330078 99.91478729248047 0
		endloop
	endfacet
	facet normal -0.6493043444596537 0.7605286768201576 0
		outer loop
			vertex -104.91364288330078 99.91478729248047 0
			vertex -104.91364288330078 99.91478729248047 5
			vertex -104.67565155029297 100.11797332763672 0
		endloop
	endfacet
	facet normal -0.5225341268521093 0.8526183708288859 0
		outer loop
			vertex -104.67565155029297 100.11797332763672 0
			vertex -104.67565155029297 100.11797332763672 5
			vertex -104.40805053710938 100.28197479248047 0
		endloop
	endfacet
	facet normal -0.3827109885147944 0.9238681178988855 0
		outer loop
			vertex -104.40805053710938 100.28197479248047 0
			vertex -104.40805053710938 100.28197479248047 5
			vertex -104.11804962158203 100.40210723876953 0
		endloop
	endfacet
	facet normal -0.23336101418138663 0.9723901670935566 0
		outer loop
			vertex -104.11804962158203 100.40210723876953 0
			vertex -104.11804962158203 100.40210723876953 5
			vertex -103.81250762939453 100.47543334960938 0
		endloop
	endfacet
	facet normal -0.07836958291769636 0.9969243745005468 0
		outer loop
			vertex -103.81250762939453 100.47543334960938 0
			vertex -103.81250762939453 100.47543334960938 5
			vertex -103.5 100.5 0
		endloop
	endfacet
	facet normal 0 0 -1
		outer loop
			vertex -105.5 -98.5 0
			vertex -105.5 98.5 0
			vertex 105.5 98.5 0
		endloop
	endfacet
	facet normal 0 0 -1
		outer loop
			vertex -105.5 98.5 0
			vertex -103.5 100.5 0
			vertex 103.5 100.5 0
		endloop
	endfacet
	facet normal 0 1 0
		outer loop
			vertex -103.5 100.5 0
			vertex -103.5 100.5 5
			vertex 103.5 100.5 0
		endloop
	endfacet
	facet normal -1 0 0
		outer loop
			vertex -105.5 -98.5 5
			vertex -105.5 98.5 5
			vertex -105.5 98.5 0
		endloop
	endfacet
	facet normal 0 0 1
		outer loop
			vertex -105.5 -98.5 5
			vertex -103.5 96.5 5
			vertex -105.5 98.5 5
		endloop
	endfacet
	facet normal -0.9969243745005468 0.07836958291769636 0
		outer loop
			vertex -105.47543334960938 98.81250762939453 0
			vertex -105.5 98.5 5
			vertex -105.47543334960938 98.81250762939453 5
		endloop
	endfacet
	facet normal -0.9723901670935566 0.23336101418138663 0
		outer loop
			vertex -105.40210723876953 99.11804962158203 0
			vertex -105.47543334960938 98.81250762939453 5
			vertex -105.40210723876953 99.11804962158203 5
		endloop
	endfacet
	facet normal -0.9238681178988855 0.3827109885147944 0
		outer loop
			vertex -105.28197479248047 99.40805053710938 0
			vertex -105.40210723876953 99.11804962158203 5
			vertex -105.28197479248047 99.40805053710938 5
		endloop
	endfacet
	facet normal -0.8526183708288859 0.5225341268521093 0
		outer loop
			vertex -105.11797332763672 99.67565155029297 0
			vertex -105.28197479248047 99.40805053710938 5
			vertex -105.11797332763672 99.67565155029297 5
		endloop
	endfacet
	facet normal -0.7602658598775068 0.649612055233518 0
		outer loop
			vertex -104.91364288330078 99.91478729248047 0
			vertex -105.11797332763672 99.67565155029297 5
			vertex -104.91364288330078 99.91478729248047 5
		endloop
	endfacet
	facet normal -0.6493043444596537 0.7605286768201576 0
		outer loop
			vertex -104.67565155029297 100.11797332763672 0
			vertex -104.91364288330078 99.91478729248047 5
			vertex -104.67565155029297 100.11797332763672 5
		endloop
	endfacet
	facet normal -0.5225341268521093 0.8526183708288859 0
		outer loop
			vertex -104.40805053710938 100.28197479248047 0
			vertex -104.67565155029297 100.11797332763672 5
			vertex -104.40805053710938 100.28197479248047 5
		endloop
	endfacet
	facet normal -0.3827109885147944 0.9238681178988855 0
		outer loop
			vertex -104.11804962158203 100.40210723876953 0
			vertex -104.40805053710938 100.28197479248047 5
			vertex -104.11804962158203 100.40210723876953 5
		endloop
	endfacet
	facet normal -0.23336101418138663 0.9723901670935566 0
		outer loop
			vertex -103.81250762939453 100.47543334960938 0
			vertex -104.11804962158203 100.40210723876953 5
			vertex -103.81250762939453 100.47543334960938 5
		endloop
	endfacet
	facet normal -0.07836958291769636 0.9969243745005468 0
		outer loop
			vertex -103.5 100.5 0
			vertex -103.81250762939453 100.47543334960938 5
			vertex -103.5 100.5 5
		endloop
	endfacet
	facet normal 0 0 1
		outer loop
			vertex -103.5 96.5 5
			vertex -103.47543334960938 96.81250762939453 5
			vertex -105.5 98.5 5
		endloop
	endfacet
	facet normal 0 0 1
		outer loop
			vertex -103.47543334960938 96.81250762939453 5
			vertex -103.40210723876953 97.11804962158203 5
			vertex -105.5 98.5 5
		endloop
	endfacet
	facet normal 0 0 1
		outer loop
			vertex -103.40210723876953 97.11804962158203 5
			vertex -103.28197479248047 97.40805053710938 5
			vertex -105.5 98.5 5
		endloop
	endfacet
	facet normal 0 0 1
		outer loop
			vertex -105.5 98.5 5
			vertex -103.28197479248047 97.40805053710938 5
			vertex -103.11797332763672 97.67565155029297 5
		endloop
	endfacet
	facet normal 0 0 1
		outer loop
			vertex -105.5 98.5 5
			vertex -103.5 100.5 5
			vertex -105.47543334960938 98.81250762939453 5
		endloop
	endfacet
	facet normal 0 0 1
		outer loop
			vertex -105.47543334960938 98.81250762939453 5
			vertex -103.5 100.5 5
			vertex -105.40210723876953 99.11804962158203 5
		endloop
	endfacet
	facet normal 0 0 1
		outer loop
			vertex -105.40210723876953 99.11804962158203 5
			vertex -103.5 100.5 5
			vertex -105.28197479248047 99.40805053710938 5
		endloop
	endfacet
	facet normal 0 0 1
		outer loop
			vertex -105.28197479248047 99.40805053710938 5
			vertex -103.5 100.5 5
			vertex -105.11797332763672 99.67565155029297 5
		endloop
	endfacet
	facet normal 0 0 1
		outer loop
			vertex -105.11797332763672 99.67565155029297 5
			vertex -103.5 100.5 5
			vertex -104.91364288330078 99.91478729248047 5
		endloop
	endfacet
	facet normal 0 0 1
		outer loop
			vertex -104.91364288330078 99.91478729248047 5
			vertex -103.5 100.5 5
			vertex -104.67565155029297 100.11797332763672 5
		endloop
	endfacet
	facet normal 0 0 1
		outer loop
			vertex -104.67565155029297 100.11797332763672 5
			vertex -103.5 100.5 5
			vertex -104.40805053710938 100.28197479248047 5
		endloop
	endfacet
	facet normal 0 0 1
		outer loop
			vertex -104.40805053710938 100.28197479248047 5
			vertex -103.5 100.5 5
			vertex -104.11804962158203 100.40210723876953 5
		endloop
	endfacet
	facet normal 0 0 1
		outer loop
			vertex -105.5 98.5 5
			vertex -103.11797332763672 97.67565155029297 5
			vertex -102.91478729248047 97.91364288330078 5
		endloop
	endfacet
	facet normal 0 0 1
		outer loop
			vertex -105.5 98.5 5
			vertex -102.91478729248047 97.91364288330078 5
			vertex -102.67565155029297 98.11797332763672 5
		endloop
	endfacet
	facet normal 0 0 1
		outer loop
			vertex -105.5 98.5 5
			vertex -102.67565155029297 98.11797332763672 5
			vertex -102.40805053710938 98.28197479248047 5
		endloop
	endfacet
	facet normal 0 0 1
		outer loop
			vertex -105.5 98.5 5
			vertex -102.40805053710938 98.28197479248047 5
			vertex -102.11804962158203 98.40210723876953 5
		endloop
	endfacet
	facet normal 0 0 1
		outer loop
			vertex -105.5 98.5 5
			vertex -102.11804962158203 98.40210723876953 5
			vertex -101.81250762939453 98.47543334960938 5
		endloop
	endfacet
	facet normal 0 0 1
		outer loop
			vertex -105.5 98.5 5
			vertex -101.81250762939453 98.47543334960938 5
			vertex -101.5 98.5 5
		endloop
	endfacet
	facet normal 0 0 1
		outer loop
			vertex -104.11804962158203 100.40210723876953 5
			vertex -103.5 100.5 5
			vertex -103.81250762939453 100.47543334960938 5
		endloop
	endfacet
	facet normal 0 0 1
		outer loop
			vertex -105.5 98.5 5
			vertex 103.5 100.5 5
			vertex -103.5 100.5 5
		endloop
	endfacet
	facet normal 0 0 1
		outer loop
			vertex -105.5 98.5 5
			vertex -101.5 98.5 5
			vertex 103.5 100.5 5
		endloop
	endfacet
	facet normal 0 0 -1
		outer loop
			vertex -103.5 -100.5 0
			vertex 105.5 -98.5 0
			vertex 103.5 -100.5 0
		endloop
	endfacet
	facet normal 0 -1 0
		outer loop
			vertex -103.5 -100.5 0
			vertex 103.5 -100.5 0
			vertex 103.5 -100.5 5
		endloop
	endfacet
	facet normal 0 0 -1
		outer loop
			vertex -105.5 -98.5 0
			vertex 105.5 98.5 0
			vertex 105.5 -98.5 0
		endloop
	endfacet
	facet normal 0 0 -1
		outer loop
			vertex 103.5 -100.5 0
			vertex 104.11804962158203 -100.40210723876953 0
			vertex 103.81250762939453 -100.47543334960938 0
		endloop
	endfacet
	facet normal 0 0 -1
		outer loop
			vertex 103.5 -100.5 0
			vertex 104.40805053710938 -100.28197479248047 0
			vertex 104.11804962158203 -100.40210723876953 0
		endloop
	endfacet
	facet normal 0 0 -1
		outer loop
			vertex 103.5 -100.5 0
			vertex 104.67565155029297 -100.11797332763672 0
			vertex 104.40805053710938 -100.28197479248047 0
		endloop
	endfacet
	facet normal 0 0 -1
		outer loop
			vertex 103.5 -100.5 0
			vertex 104.91364288330078 -99.91478729248047 0
			vertex 104.67565155029297 -100.11797332763672 0
		endloop
	endfacet
	facet normal 0 0 -1
		outer loop
			vertex 103.5 -100.5 0
			vertex 105.11797332763672 -99.67565155029297 0
			vertex 104.91364288330078 -99.91478729248047 0
		endloop
	endfacet
	facet normal 0 0 -1
		outer loop
			vertex 103.5 -100.5 0
			vertex 105.28197479248047 -99.40805053710938 0
			vertex 105.11797332763672 -99.67565155029297 0
		endloop
	endfacet
	facet normal 0 0 -1
		outer loop
			vertex 103.5 -100.5 0
			vertex 105.40210723876953 -99.11804962158203 0
			vertex 105.28197479248047 -99.40805053710938 0
		endloop
	endfacet
	facet normal 0 0 -1
		outer loop
			vertex 103.5 -100.5 0
			vertex 105.47543334960938 -98.81250762939453 0
			vertex 105.40210723876953 -99.11804962158203 0
		endloop
	endfacet
	facet normal 0 0 -1
		outer loop
			vertex 103.5 -100.5 0
			vertex 105.5 -98.5 0
			vertex 105.47543334960938 -98.81250762939453 0
		endloop
	endfacet
	facet normal 0.07836958291769636 -0.9969243745005468 0
		outer loop
			vertex 103.5 -100.5 0
			vertex 103.81250762939453 -100.47543334960938 0
			vertex 103.81250762939453 -100.47543334960938 5
		endloop
	endfacet
	facet normal 0.23336101418138663 -0.9723901670935566 0
		outer loop
			vertex 103.81250762939453 -100.47543334960938 0
			vertex 104.11804962158203 -100.40210723876953 0
			vertex 104.11804962158203 -100.40210723876953 5
		endloop
	endfacet
	facet normal 0.3827109885147944 -0.9238681178988855 0
		outer loop
			vertex 104.11804962158203 -100.40210723876953 0
			vertex 104.40805053710938 -100.28197479248047 0
			vertex 104.40805053710938 -100.28197479248047 5
		endloop
	endfacet
	facet normal 0.5225341268521093 -0.8526183708288859 0
		outer loop
			vertex 104.40805053710938 -100.28197479248047 0
			vertex 104.67565155029297 -100.11797332763672 0
			vertex 104.67565155029297 -100.11797332763672 5
		endloop
	endfacet
	facet normal 0.6493043444596537 -0.7605286768201576 0
		outer loop
			vertex 104.67565155029297 -100.11797332763672 0
			vertex 104.91364288330078 -99.91478729248047 0
			vertex 104.91364288330078 -99.91478729248047 5
		endloop
	endfacet
	facet normal 0.7602658598775068 -0.649612055233518 0
		outer loop
			vertex 104.91364288330078 -99.91478729248047 0
			vertex 105.11797332763672 -99.67565155029297 0
			vertex 105.11797332763672 -99.67565155029297 5
		endloop
	endfacet
	facet normal 0.8526183708288859 -0.5225341268521093 0
		outer loop
			vertex 105.11797332763672 -99.67565155029297 0
			vertex 105.28197479248047 -99.40805053710938 0
			vertex 105.28197479248047 -99.40805053710938 5
		endloop
	endfacet
	facet normal 0.9238681178988855 -0.3827109885147944 0
		outer loop
			vertex 105.28197479248047 -99.40805053710938 0
			vertex 105.40210723876953 -99.11804962158203 0
			vertex 105.40210723876953 -99.11804962158203 5
		endloop
	endfacet
	facet normal 0.9723901670935566 -0.23336101418138663 0
		outer loop
			vertex 105.40210723876953 -99.11804962158203 0
			vertex 105.47543334960938 -98.81250762939453 0
			vertex 105.47543334960938 -98.81250762939453 5
		endloop
	endfacet
	facet normal 0.9969243745005468 -0.07836958291769636 0
		outer loop
			vertex 105.47543334960938 -98.81250762939453 0
			vertex 105.5 -98.5 0
			vertex 105.5 -98.5 5
		endloop
	endfacet
	facet normal 0 0 1
		outer loop
			vertex -103.5 -100.5 5
			vertex 105.5 -98.5 5
			vertex 101.5 -98.5 5
		endloop
	endfacet
	facet normal 0 0 1
		outer loop
			vertex -103.5 -100.5 5
			vertex 103.5 -100.5 5
			vertex 105.5 -98.5 5
		endloop
	endfacet
	facet normal 0.07836958291769636 -0.9969243745005468 0
		outer loop
			vertex 103.5 -100.5 0
			vertex 103.81250762939453 -100.47543334960938 5
			vertex 103.5 -100.5 5
		endloop
	endfacet
	facet normal 0.23336101418138663 -0.9723901670935566 0
		outer loop
			vertex 103.81250762939453 -100.47543334960938 0
			vertex 104.11804962158203 -100.40210723876953 5
			vertex 103.81250762939453 -100.47543334960938 5
		endloop
	endfacet
	facet normal 0.3827109885147944 -0.9238681178988855 0
		outer loop
			vertex 104.11804962158203 -100.40210723876953 0
			vertex 104.40805053710938 -100.28197479248047 5
			vertex 104.11804962158203 -100.40210723876953 5
		endloop
	endfacet
	facet normal 0.5225341268521093 -0.8526183708288859 0
		outer loop
			vertex 104.40805053710938 -100.28197479248047 0
			vertex 104.67565155029297 -100.11797332763672 5
			vertex 104.40805053710938 -100.28197479248047 5
		endloop
	endfacet
	facet normal 0.6493043444596537 -0.7605286768201576 0
		outer loop
			vertex 104.67565155029297 -100.11797332763672 0
			vertex 104.91364288330078 -99.91478729248047 5
			vertex 104.67565155029297 -100.11797332763672 5
		endloop
	endfacet
	facet normal 0.7602658598775068 -0.649612055233518 0
		outer loop
			vertex 104.91364288330078 -99.91478729248047 0
			vertex 105.11797332763672 -99.67565155029297 5
			vertex 104.91364288330078 -99.91478729248047 5
		endloop
	endfacet
	facet normal 0.8526183708288859 -0.5225341268521093 0
		outer loop
			vertex 105.11797332763672 -99.67565155029297 0
			vertex 105.28197479248047 -99.40805053710938 5
			vertex 105.11797332763672 -99.67565155029297 5
		endloop
	endfacet
	facet normal 0.9238681178988855 -0.3827109885147944 0
		outer loop
			vertex 105.28197479248047 -99.40805053710938 0
			vertex 105.40210723876953 -99.11804962158203 5
			vertex 105.28197479248047 -99.40805053710938 5
		endloop
	endfacet
	facet normal 0.9723901670935566 -0.23336101418138663 0
		outer loop
			vertex 105.40210723876953 -99.11804962158203 0
			vertex 105.47543334960938 -98.81250762939453 5
			vertex 105.40210723876953 -99.11804962158203 5
		endloop
	endfacet
	facet normal 0.9969243745005468 -0.07836958291769636 0
		outer loop
			vertex 105.47543334960938 -98.81250762939453 0
			vertex 105.5 -98.5 5
			vertex 105.47543334960938 -98.81250762939453 5
		endloop
	endfacet
	facet normal 0 0 1
		outer loop
			vertex 103.5 -100.5 5
			vertex 103.81250762939453 -100.47543334960938 5
			vertex 104.11804962158203 -100.40210723876953 5
		endloop
	endfacet
	facet normal 0 0 1
		outer loop
			vertex 101.5 -98.5 5
			vertex 105.5 -98.5 5
			vertex 101.81250762939453 -98.47543334960938 5
		endloop
	endfacet
	facet normal 0 0 1
		outer loop
			vertex 101.81250762939453 -98.47543334960938 5
			vertex 105.5 -98.5 5
			vertex 102.11804962158203 -98.40210723876953 5
		endloop
	endfacet
	facet normal 0 0 1
		outer loop
			vertex 102.11804962158203 -98.40210723876953 5
			vertex 105.5 -98.5 5
			vertex 102.40805053710938 -98.28197479248047 5
		endloop
	endfacet
	facet normal 0 0 1
		outer loop
			vertex 102.40805053710938 -98.28197479248047 5
			vertex 105.5 -98.5 5
			vertex 102.67565155029297 -98.11797332763672 5
		endloop
	endfacet
	facet normal 0 0 1
		outer loop
			vertex 102.67565155029297 -98.11797332763672 5
			vertex 105.5 -98.5 5
			vertex 102.91478729248047 -97.91364288330078 5
		endloop
	endfacet
	facet normal 0 0 1
		outer loop
			vertex 102.91478729248047 -97.91364288330078 5
			vertex 105.5 -98.5 5
			vertex 103.11797332763672 -97.67565155029297 5
		endloop
	endfacet
	facet normal 0 0 1
		outer loop
			vertex 103.5 -100.5 5
			vertex 104.11804962158203 -100.40210723876953 5
			vertex 104.40805053710938 -100.28197479248047 5
		endloop
	endfacet
	facet normal 0 0 1
		outer loop
			vertex 103.5 -100.5 5
			vertex 104.40805053710938 -100.28197479248047 5
			vertex 104.67565155029297 -100.11797332763672 5
		endloop
	endfacet
	facet normal 0 0 1
		outer loop
			vertex 103.5 -100.5 5
			vertex 104.67565155029297 -100.11797332763672 5
			vertex 104.91364288330078 -99.91478729248047 5
		endloop
	endfacet
	facet normal 0 0 1
		outer loop
			vertex 103.5 -100.5 5
			vertex 104.91364288330078 -99.91478729248047 5
			vertex 105.11797332763672 -99.67565155029297 5
		endloop
	endfacet
	facet normal 0 0 1
		outer loop
			vertex 103.5 -100.5 5
			vertex 105.11797332763672 -99.67565155029297 5
			vertex 105.28197479248047 -99.40805053710938 5
		endloop
	endfacet
	facet normal 0 0 1
		outer loop
			vertex 103.5 -100.5 5
			vertex 105.28197479248047 -99.40805053710938 5
			vertex 105.40210723876953 -99.11804962158203 5
		endloop
	endfacet
	facet normal 0 0 1
		outer loop
			vertex 103.5 -100.5 5
			vertex 105.40210723876953 -99.11804962158203 5
			vertex 105.47543334960938 -98.81250762939453 5
		endloop
	endfacet
	facet normal 0 0 1
		outer loop
			vertex 103.5 -100.5 5
			vertex 105.47543334960938 -98.81250762939453 5
			vertex 105.5 -98.5 5
		endloop
	endfacet
	facet normal 0 0 1
		outer loop
			vertex 103.11797332763672 -97.67565155029297 5
			vertex 105.5 -98.5 5
			vertex 103.28197479248047 -97.40805053710938 5
		endloop
	endfacet
	facet normal 0 0 1
		outer loop
			vertex 103.28197479248047 -97.40805053710938 5
			vertex 105.5 -98.5 5
			vertex 103.40210723876953 -97.11804962158203 5
		endloop
	endfacet
	facet normal 0 0 1
		outer loop
			vertex 105.5 -98.5 5
			vertex 103.47543334960938 -96.81250762939453 5
			vertex 103.40210723876953 -97.11804962158203 5
		endloop
	endfacet
	facet normal 0 0 1
		outer loop
			vertex 105.5 -98.5 5
			vertex 103.5 -96.5 5
			vertex 103.47543334960938 -96.81250762939453 5
		endloop
	endfacet
	facet normal 1 0 0
		outer loop
			vertex 105.5 -98.5 0
			vertex 105.5 98.5 5
			vertex 105.5 -98.5 5
		endloop
	endfacet
	facet normal 0 0 1
		outer loop
			vertex 105.5 -98.5 5
			vertex 105.5 98.5 5
			vertex 103.5 -96.5 5
		endloop
	endfacet
	facet normal 0 0 -1
		outer loop
			vertex -105.5 98.5 0
			vertex 103.5 100.5 0
			vertex 105.5 98.5 0
		endloop
	endfacet
	facet normal 1 0 0
		outer loop
			vertex 105.5 -98.5 0
			vertex 105.5 98.5 0
			vertex 105.5 98.5 5
		endloop
	endfacet
	facet normal 0 0 -1
		outer loop
			vertex 103.5 100.5 0
			vertex 103.81250762939453 100.47543334960938 0
			vertex 104.11804962158203 100.40210723876953 0
		endloop
	endfacet
	facet normal 0 0 -1
		outer loop
			vertex 103.5 100.5 0
			vertex 104.11804962158203 100.40210723876953 0
			vertex 104.40805053710938 100.28197479248047 0
		endloop
	endfacet
	facet normal 0 0 -1
		outer loop
			vertex 103.5 100.5 0
			vertex 104.40805053710938 100.28197479248047 0
			vertex 104.67565155029297 100.11797332763672 0
		endloop
	endfacet
	facet normal 0 0 -1
		outer loop
			vertex 103.5 100.5 0
			vertex 105.11797332763672 99.67565155029297 0
			vertex 105.28197479248047 99.40805053710938 0
		endloop
	endfacet
	facet normal 0 0 -1
		outer loop
			vertex 103.5 100.5 0
			vertex 104.91364288330078 99.91478729248047 0
			vertex 105.11797332763672 99.67565155029297 0
		endloop
	endfacet
	facet normal 0 0 -1
		outer loop
			vertex 103.5 100.5 0
			vertex 104.67565155029297 100.11797332763672 0
			vertex 104.91364288330078 99.91478729248047 0
		endloop
	endfacet
	facet normal 0 0 -1
		outer loop
			vertex 103.5 100.5 0
			vertex 105.47543334960938 98.81250762939453 0
			vertex 105.5 98.5 0
		endloop
	endfacet
	facet normal 0 0 -1
		outer loop
			vertex 103.5 100.5 0
			vertex 105.40210723876953 99.11804962158203 0
			vertex 105.47543334960938 98.81250762939453 0
		endloop
	endfacet
	facet normal 0 0 -1
		outer loop
			vertex 103.5 100.5 0
			vertex 105.28197479248047 99.40805053710938 0
			vertex 105.40210723876953 99.11804962158203 0
		endloop
	endfacet
	facet normal 0.07836958291769636 0.9969243745005468 0
		outer loop
			vertex 103.5 100.5 0
			vertex 103.5 100.5 5
			vertex 103.81250762939453 100.47543334960938 0
		endloop
	endfacet
	facet normal 0.9969243745005468 0.07836958291769636 0
		outer loop
			vertex 105.5 98.5 0
			vertex 105.47543334960938 98.81250762939453 0
			vertex 105.47543334960938 98.81250762939453 5
		endloop
	endfacet
	facet normal 0.23336101418138663 0.9723901670935566 0
		outer loop
			vertex 103.81250762939453 100.47543334960938 0
			vertex 103.81250762939453 100.47543334960938 5
			vertex 104.11804962158203 100.40210723876953 0
		endloop
	endfacet
	facet normal 0.3827109885147944 0.9238681178988855 0
		outer loop
			vertex 104.11804962158203 100.40210723876953 0
			vertex 104.11804962158203 100.40210723876953 5
			vertex 104.40805053710938 100.28197479248047 0
		endloop
	endfacet
	facet normal 0.5225341268521093 0.8526183708288859 0
		outer loop
			vertex 104.40805053710938 100.28197479248047 0
			vertex 104.40805053710938 100.28197479248047 5
			vertex 104.67565155029297 100.11797332763672 0
		endloop
	endfacet
	facet normal 0.9723901670935566 0.23336101418138663 0
		outer loop
			vertex 105.47543334960938 98.81250762939453 0
			vertex 105.40210723876953 99.11804962158203 0
			vertex 105.40210723876953 99.11804962158203 5
		endloop
	endfacet
	facet normal 0.9238681178988855 0.3827109885147944 0
		outer loop
			vertex 105.40210723876953 99.11804962158203 0
			vertex 105.28197479248047 99.40805053710938 0
			vertex 105.28197479248047 99.40805053710938 5
		endloop
	endfacet
	facet normal 0.8526183708288859 0.5225341268521093 0
		outer loop
			vertex 105.28197479248047 99.40805053710938 0
			vertex 105.11797332763672 99.67565155029297 0
			vertex 105.11797332763672 99.67565155029297 5
		endloop
	endfacet
	facet normal 0.6493043444596537 0.7605286768201576 0
		outer loop
			vertex 104.67565155029297 100.11797332763672 0
			vertex 104.67565155029297 100.11797332763672 5
			vertex 104.91364288330078 99.91478729248047 0
		endloop
	endfacet
	facet normal 0.7602658598775068 0.649612055233518 0
		outer loop
			vertex 105.11797332763672 99.67565155029297 0
			vertex 104.91364288330078 99.91478729248047 0
			vertex 104.91364288330078 99.91478729248047 5
		endloop
	endfacet
	facet normal 0 1 0
		outer loop
			vertex -103.5 100.5 5
			vertex 103.5 100.5 5
			vertex 103.5 100.5 0
		endloop
	endfacet
	facet normal 0 0 1
		outer loop
			vertex -101.5 98.5 5
			vertex 101.5 98.5 5
			vertex 103.5 100.5 5
		endloop
	endfacet
	facet normal 0 0 1
		outer loop
			vertex 103.5 -96.5 5
			vertex 105.5 98.5 5
			vertex 103.5 96.5 5
		endloop
	endfacet
	facet normal 0.07836958291769636 0.9969243745005468 0
		outer loop
			vertex 103.81250762939453 100.47543334960938 0
			vertex 103.5 100.5 5
			vertex 103.81250762939453 100.47543334960938 5
		endloop
	endfacet
	facet normal 0.9969243745005468 0.07836958291769636 0
		outer loop
			vertex 105.5 98.5 0
			vertex 105.47543334960938 98.81250762939453 5
			vertex 105.5 98.5 5
		endloop
	endfacet
	facet normal 0.9723901670935566 0.23336101418138663 0
		outer loop
			vertex 105.47543334960938 98.81250762939453 0
			vertex 105.40210723876953 99.11804962158203 5
			vertex 105.47543334960938 98.81250762939453 5
		endloop
	endfacet
	facet normal 0.23336101418138663 0.9723901670935566 0
		outer loop
			vertex 104.11804962158203 100.40210723876953 0
			vertex 103.81250762939453 100.47543334960938 5
			vertex 104.11804962158203 100.40210723876953 5
		endloop
	endfacet
	facet normal 0.3827109885147944 0.9238681178988855 0
		outer loop
			vertex 104.40805053710938 100.28197479248047 0
			vertex 104.11804962158203 100.40210723876953 5
			vertex 104.40805053710938 100.28197479248047 5
		endloop
	endfacet
	facet normal 0.5225341268521093 0.8526183708288859 0
		outer loop
			vertex 104.67565155029297 100.11797332763672 0
			vertex 104.40805053710938 100.28197479248047 5
			vertex 104.67565155029297 100.11797332763672 5
		endloop
	endfacet
	facet normal 0.9238681178988855 0.3827109885147944 0
		outer loop
			vertex 105.40210723876953 99.11804962158203 0
			vertex 105.28197479248047 99.40805053710938 5
			vertex 105.40210723876953 99.11804962158203 5
		endloop
	endfacet
	facet normal 0.8526183708288859 0.5225341268521093 0
		outer loop
			vertex 105.28197479248047 99.40805053710938 0
			vertex 105.11797332763672 99.67565155029297 5
			vertex 105.28197479248047 99.40805053710938 5
		endloop
	endfacet
	facet normal 0.6493043444596537 0.7605286768201576 0
		outer loop
			vertex 104.91364288330078 99.91478729248047 0
			vertex 104.67565155029297 100.11797332763672 5
			vertex 104.91364288330078 99.91478729248047 5
		endloop
	endfacet
	facet normal 0.7602658598775068 0.649612055233518 0
		outer loop
			vertex 105.11797332763672 99.67565155029297 0
			vertex 104.91364288330078 99.91478729248047 5
			vertex 105.11797332763672 99.67565155029297 5
		endloop
	endfacet
	facet normal 0 0 1
		outer loop
			vertex 103.5 96.5 5
			vertex 105.5 98.5 5
			vertex 103.47543334960938 96.81250762939453 5
		endloop
	endfacet
	facet normal 0 0 1
		outer loop
			vertex 101.5 98.5 5
			vertex 101.81250762939453 98.47543334960938 5
			vertex 105.5 98.5 5
		endloop
	endfacet
	facet normal 0 0 1
		outer loop
			vertex 102.91478729248047 97.91364288330078 5
			vertex 103.11797332763672 97.67565155029297 5
			vertex 105.5 98.5 5
		endloop
	endfacet
	facet normal 0 0 1
		outer loop
			vertex 101.81250762939453 98.47543334960938 5
			vertex 102.11804962158203 98.40210723876953 5
			vertex 105.5 98.5 5
		endloop
	endfacet
	facet normal 0 0 1
		outer loop
			vertex 102.11804962158203 98.40210723876953 5
			vertex 102.40805053710938 98.28197479248047 5
			vertex 105.5 98.5 5
		endloop
	endfacet
	facet normal 0 0 1
		outer loop
			vertex 102.67565155029297 98.11797332763672 5
			vertex 105.5 98.5 5
			vertex 102.40805053710938 98.28197479248047 5
		endloop
	endfacet
	facet normal 0 0 1
		outer loop
			vertex 102.67565155029297 98.11797332763672 5
			vertex 102.91478729248047 97.91364288330078 5
			vertex 105.5 98.5 5
		endloop
	endfacet
	facet normal 0 0 1
		outer loop
			vertex 101.5 98.5 5
			vertex 105.5 98.5 5
			vertex 103.5 100.5 5
		endloop
	endfacet
	facet normal 0 0 1
		outer loop
			vertex 103.5 100.5 5
			vertex 104.11804962158203 100.40210723876953 5
			vertex 103.81250762939453 100.47543334960938 5
		endloop
	endfacet
	facet normal 0 0 1
		outer loop
			vertex 103.40210723876953 97.11804962158203 5
			vertex 103.47543334960938 96.81250762939453 5
			vertex 105.5 98.5 5
		endloop
	endfacet
	facet normal 0 0 1
		outer loop
			vertex 103.40210723876953 97.11804962158203 5
			vertex 105.5 98.5 5
			vertex 103.28197479248047 97.40805053710938 5
		endloop
	endfacet
	facet normal 0 0 1
		outer loop
			vertex 103.11797332763672 97.67565155029297 5
			vertex 103.28197479248047 97.40805053710938 5
			vertex 105.5 98.5 5
		endloop
	endfacet
	facet normal 0 0 1
		outer loop
			vertex 103.5 100.5 5
			vertex 104.40805053710938 100.28197479248047 5
			vertex 104.11804962158203 100.40210723876953 5
		endloop
	endfacet
	facet normal 0 0 1
		outer loop
			vertex 103.5 100.5 5
			vertex 104.67565155029297 100.11797332763672 5
			vertex 104.40805053710938 100.28197479248047 5
		endloop
	endfacet
	facet normal 0 0 1
		outer loop
			vertex 103.5 100.5 5
			vertex 105.28197479248047 99.40805053710938 5
			vertex 105.11797332763672 99.67565155029297 5
		endloop
	endfacet
	facet normal 0 0 1
		outer loop
			vertex 103.5 100.5 5
			vertex 105.11797332763672 99.67565155029297 5
			vertex 104.91364288330078 99.91478729248047 5
		endloop
	endfacet
	facet normal 0 0 1
		outer loop
			vertex 103.5 100.5 5
			vertex 104.91364288330078 99.91478729248047 5
			vertex 104.67565155029297 100.11797332763672 5
		endloop
	endfacet
	facet normal 0 0 1
		outer loop
			vertex 103.5 100.5 5
			vertex 105.5 98.5 5
			vertex 105.47543334960938 98.81250762939453 5
		endloop
	endfacet
	facet normal 0 0 1
		outer loop
			vertex 103.5 100.5 5
			vertex 105.47543334960938 98.81250762939453 5
			vertex 105.40210723876953 99.11804962158203 5
		endloop
	endfacet
	facet normal 0 0 1
		outer loop
			vertex 103.5 100.5 5
			vertex 105.40210723876953 99.11804962158203 5
			vertex 105.28197479248047 99.40805053710938 5
		endloop
	endfacet
	facet normal 0 0 1
		outer loop
			vertex -102.91478729248047 -97.91364288330078 2
			vertex -102.67565155029297 -98.11797332763672 2
			vertex -101.5 -98.5 2
		endloop
	endfacet
	facet normal 0 0 1
		outer loop
			vertex -103.28197479248047 -97.40805053710938 2
			vertex -103.11797332763672 -97.67565155029297 2
			vertex -101.5 -98.5 2
		endloop
	endfacet
	facet normal 0 0 1
		outer loop
			vertex -103.28197479248047 -97.40805053710938 2
			vertex -101.5 -98.5 2
			vertex -103.40210723876953 -97.11804962158203 2
		endloop
	endfacet
	facet normal 0 0 1
		outer loop
			vertex -103.47543334960938 -96.81250762939453 2
			vertex -103.40210723876953 -97.11804962158203 2
			vertex -101.5 -98.5 2
		endloop
	endfacet
	facet normal 0 0 1
		outer loop
			vertex -103.11797332763672 -97.67565155029297 2
			vertex -102.91478729248047 -97.91364288330078 2
			vertex -101.5 -98.5 2
		endloop
	endfacet
	facet normal 0 0 1
		outer loop
			vertex -103.47543334960938 -96.81250762939453 2
			vertex -101.5 -98.5 2
			vertex -103.5 -96.5 2
		endloop
	endfacet
	facet normal 0 0 1
		outer loop
			vertex -102.40805053710938 -98.28197479248047 2
			vertex -102.11804962158203 -98.40210723876953 2
			vertex -101.5 -98.5 2
		endloop
	endfacet
	facet normal 0 0 1
		outer loop
			vertex -102.40805053710938 -98.28197479248047 2
			vertex -101.5 -98.5 2
			vertex -102.67565155029297 -98.11797332763672 2
		endloop
	endfacet
	facet normal 0 0 1
		outer loop
			vertex -102.11804962158203 -98.40210723876953 2
			vertex -101.81250762939453 -98.47543334960938 2
			vertex -101.5 -98.5 2
		endloop
	endfacet
	facet normal 0 0 1
		outer loop
			vertex -103.5 -96.5 2
			vertex -101.5 -98.5 2
			vertex 103.5 -96.5 2
		endloop
	endfacet
	facet normal 0.7605286768201575 0.6493043444596536 0
		outer loop
			vertex -103.11797332763672 -97.67565155029297 2
			vertex -103.11797332763672 -97.67565155029297 5
			vertex -102.91478729248047 -97.91364288330078 2
		endloop
	endfacet
	facet normal 0.852618370828886 0.5225341268521093 0
		outer loop
			vertex -103.28197479248047 -97.40805053710938 2
			vertex -103.28197479248047 -97.40805053710938 5
			vertex -103.11797332763672 -97.67565155029297 2
		endloop
	endfacet
	facet normal 0.5225341268521093 0.852618370828886 0
		outer loop
			vertex -102.40805053710938 -98.28197479248047 2
			vertex -102.67565155029297 -98.11797332763672 2
			vertex -102.67565155029297 -98.11797332763672 5
		endloop
	endfacet
	facet normal 0.3827109885147944 0.9238681178988855 0
		outer loop
			vertex -102.40805053710938 -98.28197479248047 2
			vertex -102.40805053710938 -98.28197479248047 5
			vertex -102.11804962158203 -98.40210723876953 2
		endloop
	endfacet
	facet normal 0.649612055233518 0.7602658598775068 0
		outer loop
			vertex -102.91478729248047 -97.91364288330078 2
			vertex -102.91478729248047 -97.91364288330078 5
			vertex -102.67565155029297 -98.11797332763672 2
		endloop
	endfacet
	facet normal 0.9723901670935565 0.23336101418138663 0
		outer loop
			vertex -103.47543334960938 -96.81250762939453 2
			vertex -103.47543334960938 -96.81250762939453 5
			vertex -103.40210723876953 -97.11804962158203 2
		endloop
	endfacet
	facet normal 0.9969243745005468 0.07836958291769637 0
		outer loop
			vertex -103.47543334960938 -96.81250762939453 2
			vertex -103.5 -96.5 2
			vertex -103.5 -96.5 5
		endloop
	endfacet
	facet normal 0.9238681178988855 0.3827109885147944 0
		outer loop
			vertex -103.28197479248047 -97.40805053710938 2
			vertex -103.40210723876953 -97.11804962158203 2
			vertex -103.40210723876953 -97.11804962158203 5
		endloop
	endfacet
	facet normal 0.23336101418138663 0.9723901670935565 0
		outer loop
			vertex -102.11804962158203 -98.40210723876953 2
			vertex -102.11804962158203 -98.40210723876953 5
			vertex -101.81250762939453 -98.47543334960938 2
		endloop
	endfacet
	facet normal 0.07836958291769637 0.9969243745005468 0
		outer loop
			vertex -101.81250762939453 -98.47543334960938 2
			vertex -101.81250762939453 -98.47543334960938 5
			vertex -101.5 -98.5 2
		endloop
	endfacet
	facet normal 0.852618370828886 0.5225341268521093 0
		outer loop
			vertex -103.11797332763672 -97.67565155029297 2
			vertex -103.28197479248047 -97.40805053710938 5
			vertex -103.11797332763672 -97.67565155029297 5
		endloop
	endfacet
	facet normal 0.5225341268521093 0.852618370828886 0
		outer loop
			vertex -102.40805053710938 -98.28197479248047 2
			vertex -102.67565155029297 -98.11797332763672 5
			vertex -102.40805053710938 -98.28197479248047 5
		endloop
	endfacet
	facet normal 0.3827109885147944 0.9238681178988855 0
		outer loop
			vertex -102.11804962158203 -98.40210723876953 2
			vertex -102.40805053710938 -98.28197479248047 5
			vertex -102.11804962158203 -98.40210723876953 5
		endloop
	endfacet
	facet normal 0.7605286768201575 0.6493043444596536 0
		outer loop
			vertex -102.91478729248047 -97.91364288330078 2
			vertex -103.11797332763672 -97.67565155029297 5
			vertex -102.91478729248047 -97.91364288330078 5
		endloop
	endfacet
	facet normal 0.649612055233518 0.7602658598775068 0
		outer loop
			vertex -102.67565155029297 -98.11797332763672 2
			vertex -102.91478729248047 -97.91364288330078 5
			vertex -102.67565155029297 -98.11797332763672 5
		endloop
	endfacet
	facet normal 0.9969243745005468 0.07836958291769637 0
		outer loop
			vertex -103.47543334960938 -96.81250762939453 2
			vertex -103.5 -96.5 5
			vertex -103.47543334960938 -96.81250762939453 5
		endloop
	endfacet
	facet normal 0.9238681178988855 0.3827109885147944 0
		outer loop
			vertex -103.28197479248047 -97.40805053710938 2
			vertex -103.40210723876953 -97.11804962158203 5
			vertex -103.28197479248047 -97.40805053710938 5
		endloop
	endfacet
	facet normal 0.9723901670935565 0.23336101418138663 0
		outer loop
			vertex -103.40210723876953 -97.11804962158203 2
			vertex -103.47543334960938 -96.81250762939453 5
			vertex -103.40210723876953 -97.11804962158203 5
		endloop
	endfacet
	facet normal 0.23336101418138663 0.9723901670935565 0
		outer loop
			vertex -101.81250762939453 -98.47543334960938 2
			vertex -102.11804962158203 -98.40210723876953 5
			vertex -101.81250762939453 -98.47543334960938 5
		endloop
	endfacet
	facet normal 0.07836958291769637 0.9969243745005468 0
		outer loop
			vertex -101.5 -98.5 2
			vertex -101.81250762939453 -98.47543334960938 5
			vertex -101.5 -98.5 5
		endloop
	endfacet
	facet normal 1 0 0
		outer loop
			vertex -103.5 -96.5 2
			vertex -103.5 96.5 5
			vertex -103.5 -96.5 5
		endloop
	endfacet
	facet normal 0 1 0
		outer loop
			vertex -101.5 -98.5 2
			vertex -101.5 -98.5 5
			vertex 101.5 -98.5 2
		endloop
	endfacet
	facet normal 0 0 1
		outer loop
			vertex -103.5 96.5 2
			vertex -101.5 98.5 2
			vertex -103.47543334960938 96.81250762939453 2
		endloop
	endfacet
	facet normal 0 0 1
		outer loop
			vertex -103.47543334960938 96.81250762939453 2
			vertex -101.5 98.5 2
			vertex -103.40210723876953 97.11804962158203 2
		endloop
	endfacet
	facet normal 0 0 1
		outer loop
			vertex -103.40210723876953 97.11804962158203 2
			vertex -101.5 98.5 2
			vertex -103.28197479248047 97.40805053710938 2
		endloop
	endfacet
	facet normal 0 0 1
		outer loop
			vertex -103.28197479248047 97.40805053710938 2
			vertex -101.5 98.5 2
			vertex -103.11797332763672 97.67565155029297 2
		endloop
	endfacet
	facet normal 0 0 1
		outer loop
			vertex -103.11797332763672 97.67565155029297 2
			vertex -101.5 98.5 2
			vertex -102.91478729248047 97.91364288330078 2
		endloop
	endfacet
	facet normal 0 0 1
		outer loop
			vertex -102.91478729248047 97.91364288330078 2
			vertex -101.5 98.5 2
			vertex -102.67565155029297 98.11797332763672 2
		endloop
	endfacet
	facet normal 0 0 1
		outer loop
			vertex -102.67565155029297 98.11797332763672 2
			vertex -101.5 98.5 2
			vertex -102.40805053710938 98.28197479248047 2
		endloop
	endfacet
	facet normal 0 0 1
		outer loop
			vertex -102.40805053710938 98.28197479248047 2
			vertex -101.5 98.5 2
			vertex -102.11804962158203 98.40210723876953 2
		endloop
	endfacet
	facet normal 0 0 1
		outer loop
			vertex -102.11804962158203 98.40210723876953 2
			vertex -101.5 98.5 2
			vertex -101.81250762939453 98.47543334960938 2
		endloop
	endfacet
	facet normal 0 0 1
		outer loop
			vertex -103.5 -96.5 2
			vertex 103.5 96.5 2
			vertex -103.5 96.5 2
		endloop
	endfacet
	facet normal 0 0 1
		outer loop
			vertex -103.5 96.5 2
			vertex 101.5 98.5 2
			vertex -101.5 98.5 2
		endloop
	endfacet
	facet normal 1 0 0
		outer loop
			vertex -103.5 -96.5 2
			vertex -103.5 96.5 2
			vertex -103.5 96.5 5
		endloop
	endfacet
	facet normal 0.9969243745005468 -0.07836958291769637 0
		outer loop
			vertex -103.5 96.5 2
			vertex -103.47543334960938 96.81250762939453 2
			vertex -103.47543334960938 96.81250762939453 5
		endloop
	endfacet
	facet normal 0.9723901670935565 -0.23336101418138663 0
		outer loop
			vertex -103.47543334960938 96.81250762939453 2
			vertex -103.40210723876953 97.11804962158203 2
			vertex -103.40210723876953 97.11804962158203 5
		endloop
	endfacet
	facet normal 0.9238681178988855 -0.3827109885147944 0
		outer loop
			vertex -103.40210723876953 97.11804962158203 2
			vertex -103.28197479248047 97.40805053710938 2
			vertex -103.28197479248047 97.40805053710938 5
		endloop
	endfacet
	facet normal 0.852618370828886 -0.5225341268521093 0
		outer loop
			vertex -103.28197479248047 97.40805053710938 2
			vertex -103.11797332763672 97.67565155029297 2
			vertex -103.11797332763672 97.67565155029297 5
		endloop
	endfacet
	facet normal 0.7605286768201575 -0.6493043444596536 0
		outer loop
			vertex -103.11797332763672 97.67565155029297 2
			vertex -102.91478729248047 97.91364288330078 2
			vertex -102.91478729248047 97.91364288330078 5
		endloop
	endfacet
	facet normal 0.649612055233518 -0.7602658598775068 0
		outer loop
			vertex -102.91478729248047 97.91364288330078 2
			vertex -102.67565155029297 98.11797332763672 2
			vertex -102.67565155029297 98.11797332763672 5
		endloop
	endfacet
	facet normal 0.5225341268521093 -0.852618370828886 0
		outer loop
			vertex -102.67565155029297 98.11797332763672 2
			vertex -102.40805053710938 98.28197479248047 2
			vertex -102.40805053710938 98.28197479248047 5
		endloop
	endfacet
	facet normal 0.3827109885147944 -0.9238681178988855 0
		outer loop
			vertex -102.40805053710938 98.28197479248047 2
			vertex -102.11804962158203 98.40210723876953 2
			vertex -102.11804962158203 98.40210723876953 5
		endloop
	endfacet
	facet normal 0.23336101418138663 -0.9723901670935565 0
		outer loop
			vertex -102.11804962158203 98.40210723876953 2
			vertex -101.81250762939453 98.47543334960938 2
			vertex -101.81250762939453 98.47543334960938 5
		endloop
	endfacet
	facet normal 0.07836958291769637 -0.9969243745005468 0
		outer loop
			vertex -101.81250762939453 98.47543334960938 2
			vertex -101.5 98.5 2
			vertex -101.5 98.5 5
		endloop
	endfacet
	facet normal 0.9969243745005468 -0.07836958291769637 0
		outer loop
			vertex -103.5 96.5 2
			vertex -103.47543334960938 96.81250762939453 5
			vertex -103.5 96.5 5
		endloop
	endfacet
	facet normal 0.9723901670935565 -0.23336101418138663 0
		outer loop
			vertex -103.47543334960938 96.81250762939453 2
			vertex -103.40210723876953 97.11804962158203 5
			vertex -103.47543334960938 96.81250762939453 5
		endloop
	endfacet
	facet normal 0.9238681178988855 -0.3827109885147944 0
		outer loop
			vertex -103.40210723876953 97.11804962158203 2
			vertex -103.28197479248047 97.40805053710938 5
			vertex -103.40210723876953 97.11804962158203 5
		endloop
	endfacet
	facet normal 0.852618370828886 -0.5225341268521093 0
		outer loop
			vertex -103.28197479248047 97.40805053710938 2
			vertex -103.11797332763672 97.67565155029297 5
			vertex -103.28197479248047 97.40805053710938 5
		endloop
	endfacet
	facet normal 0.7605286768201575 -0.6493043444596536 0
		outer loop
			vertex -103.11797332763672 97.67565155029297 2
			vertex -102.91478729248047 97.91364288330078 5
			vertex -103.11797332763672 97.67565155029297 5
		endloop
	endfacet
	facet normal 0.649612055233518 -0.7602658598775068 0
		outer loop
			vertex -102.91478729248047 97.91364288330078 2
			vertex -102.67565155029297 98.11797332763672 5
			vertex -102.91478729248047 97.91364288330078 5
		endloop
	endfacet
	facet normal 0.5225341268521093 -0.852618370828886 0
		outer loop
			vertex -102.67565155029297 98.11797332763672 2
			vertex -102.40805053710938 98.28197479248047 5
			vertex -102.67565155029297 98.11797332763672 5
		endloop
	endfacet
	facet normal 0.3827109885147944 -0.9238681178988855 0
		outer loop
			vertex -102.40805053710938 98.28197479248047 2
			vertex -102.11804962158203 98.40210723876953 5
			vertex -102.40805053710938 98.28197479248047 5
		endloop
	endfacet
	facet normal 0.23336101418138663 -0.9723901670935565 0
		outer loop
			vertex -102.11804962158203 98.40210723876953 2
			vertex -101.81250762939453 98.47543334960938 5
			vertex -102.11804962158203 98.40210723876953 5
		endloop
	endfacet
	facet normal 0.07836958291769637 -0.9969243745005468 0
		outer loop
			vertex -101.81250762939453 98.47543334960938 2
			vertex -101.5 98.5 5
			vertex -101.81250762939453 98.47543334960938 5
		endloop
	endfacet
	facet normal 0 -1 0
		outer loop
			vertex -101.5 98.5 2
			vertex 101.5 98.5 5
			vertex -101.5 98.5 5
		endloop
	endfacet
	facet normal 0 0 1
		outer loop
			vertex -101.5 -98.5 2
			vertex 101.5 -98.5 2
			vertex 103.5 -96.5 2
		endloop
	endfacet
	facet normal 0 0 1
		outer loop
			vertex -103.5 -96.5 2
			vertex 103.5 -96.5 2
			vertex 103.5 96.5 2
		endloop
	endfacet
	facet normal 0 0 1
		outer loop
			vertex 101.5 -98.5 2
			vertex 101.81250762939453 -98.47543334960938 2
			vertex 102.11804962158203 -98.40210723876953 2
		endloop
	endfacet
	facet normal 0 0 1
		outer loop
			vertex 101.5 -98.5 2
			vertex 102.11804962158203 -98.40210723876953 2
			vertex 102.40805053710938 -98.28197479248047 2
		endloop
	endfacet
	facet normal 0 0 1
		outer loop
			vertex 101.5 -98.5 2
			vertex 102.40805053710938 -98.28197479248047 2
			vertex 102.67565155029297 -98.11797332763672 2
		endloop
	endfacet
	facet normal 0 0 1
		outer loop
			vertex 101.5 -98.5 2
			vertex 102.67565155029297 -98.11797332763672 2
			vertex 102.91478729248047 -97.91364288330078 2
		endloop
	endfacet
	facet normal 0 0 1
		outer loop
			vertex 101.5 -98.5 2
			vertex 102.91478729248047 -97.91364288330078 2
			vertex 103.11797332763672 -97.67565155029297 2
		endloop
	endfacet
	facet normal 0 0 1
		outer loop
			vertex 101.5 -98.5 2
			vertex 103.11797332763672 -97.67565155029297 2
			vertex 103.28197479248047 -97.40805053710938 2
		endloop
	endfacet
	facet normal 0 0 1
		outer loop
			vertex 101.5 -98.5 2
			vertex 103.28197479248047 -97.40805053710938 2
			vertex 103.40210723876953 -97.11804962158203 2
		endloop
	endfacet
	facet normal 0 0 1
		outer loop
			vertex 101.5 -98.5 2
			vertex 103.40210723876953 -97.11804962158203 2
			vertex 103.47543334960938 -96.81250762939453 2
		endloop
	endfacet
	facet normal 0 0 1
		outer loop
			vertex 101.5 -98.5 2
			vertex 103.47543334960938 -96.81250762939453 2
			vertex 103.5 -96.5 2
		endloop
	endfacet
	facet normal 0 1 0
		outer loop
			vertex -101.5 -98.5 5
			vertex 101.5 -98.5 5
			vertex 101.5 -98.5 2
		endloop
	endfacet
	facet normal -0.07836958291769637 0.9969243745005468 0
		outer loop
			vertex 101.5 -98.5 2
			vertex 101.5 -98.5 5
			vertex 101.81250762939453 -98.47543334960938 2
		endloop
	endfacet
	facet normal -0.23336101418138663 0.9723901670935565 0
		outer loop
			vertex 101.81250762939453 -98.47543334960938 2
			vertex 101.81250762939453 -98.47543334960938 5
			vertex 102.11804962158203 -98.40210723876953 2
		endloop
	endfacet
	facet normal -0.3827109885147944 0.9238681178988855 0
		outer loop
			vertex 102.11804962158203 -98.40210723876953 2
			vertex 102.11804962158203 -98.40210723876953 5
			vertex 102.40805053710938 -98.28197479248047 2
		endloop
	endfacet
	facet normal -0.5225341268521093 0.852618370828886 0
		outer loop
			vertex 102.40805053710938 -98.28197479248047 2
			vertex 102.40805053710938 -98.28197479248047 5
			vertex 102.67565155029297 -98.11797332763672 2
		endloop
	endfacet
	facet normal -0.649612055233518 0.7602658598775068 0
		outer loop
			vertex 102.67565155029297 -98.11797332763672 2
			vertex 102.67565155029297 -98.11797332763672 5
			vertex 102.91478729248047 -97.91364288330078 2
		endloop
	endfacet
	facet normal -0.7605286768201575 0.6493043444596536 0
		outer loop
			vertex 102.91478729248047 -97.91364288330078 2
			vertex 102.91478729248047 -97.91364288330078 5
			vertex 103.11797332763672 -97.67565155029297 2
		endloop
	endfacet
	facet normal -0.852618370828886 0.5225341268521093 0
		outer loop
			vertex 103.11797332763672 -97.67565155029297 2
			vertex 103.11797332763672 -97.67565155029297 5
			vertex 103.28197479248047 -97.40805053710938 2
		endloop
	endfacet
	facet normal -0.9238681178988855 0.3827109885147944 0
		outer loop
			vertex 103.28197479248047 -97.40805053710938 2
			vertex 103.28197479248047 -97.40805053710938 5
			vertex 103.40210723876953 -97.11804962158203 2
		endloop
	endfacet
	facet normal -0.9723901670935565 0.23336101418138663 0
		outer loop
			vertex 103.40210723876953 -97.11804962158203 2
			vertex 103.40210723876953 -97.11804962158203 5
			vertex 103.47543334960938 -96.81250762939453 2
		endloop
	endfacet
	facet normal -0.9969243745005468 0.07836958291769637 0
		outer loop
			vertex 103.47543334960938 -96.81250762939453 2
			vertex 103.47543334960938 -96.81250762939453 5
			vertex 103.5 -96.5 2
		endloop
	endfacet
	facet normal -0.07836958291769637 0.9969243745005468 0
		outer loop
			vertex 101.81250762939453 -98.47543334960938 2
			vertex 101.5 -98.5 5
			vertex 101.81250762939453 -98.47543334960938 5
		endloop
	endfacet
	facet normal -0.23336101418138663 0.9723901670935565 0
		outer loop
			vertex 102.11804962158203 -98.40210723876953 2
			vertex 101.81250762939453 -98.47543334960938 5
			vertex 102.11804962158203 -98.40210723876953 5
		endloop
	endfacet
	facet normal -0.3827109885147944 0.9238681178988855 0
		outer loop
			vertex 102.40805053710938 -98.28197479248047 2
			vertex 102.11804962158203 -98.40210723876953 5
			vertex 102.40805053710938 -98.28197479248047 5
		endloop
	endfacet
	facet normal -0.5225341268521093 0.852618370828886 0
		outer loop
			vertex 102.67565155029297 -98.11797332763672 2
			vertex 102.40805053710938 -98.28197479248047 5
			vertex 102.67565155029297 -98.11797332763672 5
		endloop
	endfacet
	facet normal -0.649612055233518 0.7602658598775068 0
		outer loop
			vertex 102.91478729248047 -97.91364288330078 2
			vertex 102.67565155029297 -98.11797332763672 5
			vertex 102.91478729248047 -97.91364288330078 5
		endloop
	endfacet
	facet normal -0.7605286768201575 0.6493043444596536 0
		outer loop
			vertex 103.11797332763672 -97.67565155029297 2
			vertex 102.91478729248047 -97.91364288330078 5
			vertex 103.11797332763672 -97.67565155029297 5
		endloop
	endfacet
	facet normal -0.852618370828886 0.5225341268521093 0
		outer loop
			vertex 103.28197479248047 -97.40805053710938 2
			vertex 103.11797332763672 -97.67565155029297 5
			vertex 103.28197479248047 -97.40805053710938 5
		endloop
	endfacet
	facet normal -0.9238681178988855 0.3827109885147944 0
		outer loop
			vertex 103.40210723876953 -97.11804962158203 2
			vertex 103.28197479248047 -97.40805053710938 5
			vertex 103.40210723876953 -97.11804962158203 5
		endloop
	endfacet
	facet normal -0.9723901670935565 0.23336101418138663 0
		outer loop
			vertex 103.47543334960938 -96.81250762939453 2
			vertex 103.40210723876953 -97.11804962158203 5
			vertex 103.47543334960938 -96.81250762939453 5
		endloop
	endfacet
	facet normal -0.9969243745005468 0.07836958291769637 0
		outer loop
			vertex 103.5 -96.5 2
			vertex 103.47543334960938 -96.81250762939453 5
			vertex 103.5 -96.5 5
		endloop
	endfacet
	facet normal -1 0 0
		outer loop
			vertex 103.5 -96.5 2
			vertex 103.5 -96.5 5
			vertex 103.5 96.5 2
		endloop
	endfacet
	facet normal 0 0 1
		outer loop
			vertex -103.5 96.5 2
			vertex 103.5 96.5 2
			vertex 101.5 98.5 2
		endloop
	endfacet
	facet normal 0 0 1
		outer loop
			vertex 101.5 98.5 2
			vertex 102.11804962158203 98.40210723876953 2
			vertex 101.81250762939453 98.47543334960938 2
		endloop
	endfacet
	facet normal 0 0 1
		outer loop
			vertex 101.5 98.5 2
			vertex 102.67565155029297 98.11797332763672 2
			vertex 102.40805053710938 98.28197479248047 2
		endloop
	endfacet
	facet normal 0 0 1
		outer loop
			vertex 101.5 98.5 2
			vertex 102.40805053710938 98.28197479248047 2
			vertex 102.11804962158203 98.40210723876953 2
		endloop
	endfacet
	facet normal 0 0 1
		outer loop
			vertex 101.5 98.5 2
			vertex 103.5 96.5 2
			vertex 103.47543334960938 96.81250762939453 2
		endloop
	endfacet
	facet normal 0 0 1
		outer loop
			vertex 101.5 98.5 2
			vertex 103.11797332763672 97.67565155029297 2
			vertex 102.91478729248047 97.91364288330078 2
		endloop
	endfacet
	facet normal 0 0 1
		outer loop
			vertex 101.5 98.5 2
			vertex 103.47543334960938 96.81250762939453 2
			vertex 103.40210723876953 97.11804962158203 2
		endloop
	endfacet
	facet normal 0 0 1
		outer loop
			vertex 101.5 98.5 2
			vertex 103.40210723876953 97.11804962158203 2
			vertex 103.28197479248047 97.40805053710938 2
		endloop
	endfacet
	facet normal 0 0 1
		outer loop
			vertex 101.5 98.5 2
			vertex 103.28197479248047 97.40805053710938 2
			vertex 103.11797332763672 97.67565155029297 2
		endloop
	endfacet
	facet normal 0 0 1
		outer loop
			vertex 101.5 98.5 2
			vertex 102.91478729248047 97.91364288330078 2
			vertex 102.67565155029297 98.11797332763672 2
		endloop
	endfacet
	facet normal 0 -1 0
		outer loop
			vertex -101.5 98.5 2
			vertex 101.5 98.5 2
			vertex 101.5 98.5 5
		endloop
	endfacet
	facet normal -1 0 0
		outer loop
			vertex 103.5 -96.5 5
			vertex 103.5 96.5 5
			vertex 103.5 96.5 2
		endloop
	endfacet
	facet normal -0.07836958291769637 -0.9969243745005468 0
		outer loop
			vertex 101.5 98.5 2
			vertex 101.81250762939453 98.47543334960938 2
			vertex 101.81250762939453 98.47543334960938 5
		endloop
	endfacet
	facet normal -0.23336101418138663 -0.9723901670935565 0
		outer loop
			vertex 101.81250762939453 98.47543334960938 2
			vertex 102.11804962158203 98.40210723876953 2
			vertex 102.11804962158203 98.40210723876953 5
		endloop
	endfacet
	facet normal -0.9238681178988855 -0.3827109885147944 0
		outer loop
			vertex 103.40210723876953 97.11804962158203 2
			vertex 103.40210723876953 97.11804962158203 5
			vertex 103.28197479248047 97.40805053710938 2
		endloop
	endfacet
	facet normal -0.9969243745005468 -0.07836958291769637 0
		outer loop
			vertex 103.5 96.5 2
			vertex 103.5 96.5 5
			vertex 103.47543334960938 96.81250762939453 2
		endloop
	endfacet
	facet normal -0.9723901670935565 -0.23336101418138663 0
		outer loop
			vertex 103.40210723876953 97.11804962158203 2
			vertex 103.47543334960938 96.81250762939453 2
			vertex 103.47543334960938 96.81250762939453 5
		endloop
	endfacet
	facet normal -0.649612055233518 -0.7602658598775068 0
		outer loop
			vertex 102.67565155029297 98.11797332763672 2
			vertex 102.91478729248047 97.91364288330078 2
			vertex 102.91478729248047 97.91364288330078 5
		endloop
	endfacet
	facet normal -0.3827109885147944 -0.9238681178988855 0
		outer loop
			vertex 102.11804962158203 98.40210723876953 2
			vertex 102.40805053710938 98.28197479248047 2
			vertex 102.40805053710938 98.28197479248047 5
		endloop
	endfacet
	facet normal -0.5225341268521093 -0.852618370828886 0
		outer loop
			vertex 102.67565155029297 98.11797332763672 2
			vertex 102.67565155029297 98.11797332763672 5
			vertex 102.40805053710938 98.28197479248047 2
		endloop
	endfacet
	facet normal -0.852618370828886 -0.5225341268521093 0
		outer loop
			vertex 103.11797332763672 97.67565155029297 2
			vertex 103.28197479248047 97.40805053710938 2
			vertex 103.28197479248047 97.40805053710938 5
		endloop
	endfacet
	facet normal -0.7605286768201575 -0.6493043444596536 0
		outer loop
			vertex 102.91478729248047 97.91364288330078 2
			vertex 103.11797332763672 97.67565155029297 2
			vertex 103.11797332763672 97.67565155029297 5
		endloop
	endfacet
	facet normal -0.07836958291769637 -0.9969243745005468 0
		outer loop
			vertex 101.5 98.5 2
			vertex 101.81250762939453 98.47543334960938 5
			vertex 101.5 98.5 5
		endloop
	endfacet
	facet normal -0.23336101418138663 -0.9723901670935565 0
		outer loop
			vertex 101.81250762939453 98.47543334960938 2
			vertex 102.11804962158203 98.40210723876953 5
			vertex 101.81250762939453 98.47543334960938 5
		endloop
	endfacet
	facet normal -0.9723901670935565 -0.23336101418138663 0
		outer loop
			vertex 103.40210723876953 97.11804962158203 2
			vertex 103.47543334960938 96.81250762939453 5
			vertex 103.40210723876953 97.11804962158203 5
		endloop
	endfacet
	facet normal -0.9238681178988855 -0.3827109885147944 0
		outer loop
			vertex 103.28197479248047 97.40805053710938 2
			vertex 103.40210723876953 97.11804962158203 5
			vertex 103.28197479248047 97.40805053710938 5
		endloop
	endfacet
	facet normal -0.9969243745005468 -0.07836958291769637 0
		outer loop
			vertex 103.47543334960938 96.81250762939453 2
			vertex 103.5 96.5 5
			vertex 103.47543334960938 96.81250762939453 5
		endloop
	endfacet
	facet normal -0.649612055233518 -0.7602658598775068 0
		outer loop
			vertex 102.67565155029297 98.11797332763672 2
			vertex 102.91478729248047 97.91364288330078 5
			vertex 102.67565155029297 98.11797332763672 5
		endloop
	endfacet
	facet normal -0.7605286768201575 -0.6493043444596536 0
		outer loop
			vertex 102.91478729248047 97.91364288330078 2
			vertex 103.11797332763672 97.67565155029297 5
			vertex 102.91478729248047 97.91364288330078 5
		endloop
	endfacet
	facet normal -0.3827109885147944 -0.9238681178988855 0
		outer loop
			vertex 102.11804962158203 98.40210723876953 2
			vertex 102.40805053710938 98.28197479248047 5
			vertex 102.11804962158203 98.40210723876953 5
		endloop
	endfacet
	facet normal -0.5225341268521093 -0.852618370828886 0
		outer loop
			vertex 102.40805053710938 98.28197479248047 2
			vertex 102.67565155029297 98.11797332763672 5
			vertex 102.40805053710938 98.28197479248047 5
		endloop
	endfacet
	facet normal -0.852618370828886 -0.5225341268521093 0
		outer loop
			vertex 103.11797332763672 97.67565155029297 2
			vertex 103.28197479248047 97.40805053710938 5
			vertex 103.11797332763672 97.67565155029297 5
		endloop
	endfacet
endsolid exported
