solid exported
	facet normal 0 0 -1
		outer loop
			vertex -101.11804962158203 -24.90210723876953 0
			vertex -101.40805053710938 -24.7819766998291 0
			vertex -100.5 -25 0
		endloop
	endfacet
	facet normal 0 0 -1
		outer loop
			vertex -101.67565155029297 -24.61797523498535 0
			vertex -101.91364288330078 -24.414785385131836 0
			vertex -100.5 -25 0
		endloop
	endfacet
	facet normal 0 0 -1
		outer loop
			vertex -101.40805053710938 -24.7819766998291 0
			vertex -101.67565155029297 -24.61797523498535 0
			vertex -100.5 -25 0
		endloop
	endfacet
	facet normal 0 0 -1
		outer loop
			vertex -101.91364288330078 -24.414785385131836 0
			vertex -102.11797332763672 -24.17565155029297 0
			vertex -100.5 -25 0
		endloop
	endfacet
	facet normal 0 0 -1
		outer loop
			vertex -100.5 -25 0
			vertex -102.11797332763672 -24.17565155029297 0
			vertex -102.28197479248047 -23.908052444458008 0
		endloop
	endfacet
	facet normal 0 0 -1
		outer loop
			vertex -101.11804962158203 -24.90210723876953 0
			vertex -100.5 -25 0
			vertex -100.81250762939453 -24.975433349609375 0
		endloop
	endfacet
	facet normal 0 0 -1
		outer loop
			vertex -100.5 -25 0
			vertex -102.28197479248047 -23.908052444458008 0
			vertex -102.40210723876953 -23.618051528930664 0
		endloop
	endfacet
	facet normal 0 0 -1
		outer loop
			vertex -100.5 -25 0
			vertex -102.40210723876953 -23.618051528930664 0
			vertex -102.47543334960938 -23.312509536743164 0
		endloop
	endfacet
	facet normal 0 0 -1
		outer loop
			vertex -100.5 -25 0
			vertex -102.47543334960938 -23.312509536743164 0
			vertex -102.5 -23.000690460205078 0
		endloop
	endfacet
	facet normal -0.23336101418138663 -0.9723901670935566 0
		outer loop
			vertex -101.11804962158203 -24.90210723876953 0
			vertex -100.81250762939453 -24.975433349609375 0
			vertex -100.81250762939453 -24.975433349609375 5
		endloop
	endfacet
	facet normal -0.3827058021606501 -0.9238702663212912 0
		outer loop
			vertex -101.11804962158203 -24.90210723876953 0
			vertex -101.11804962158203 -24.90210723876953 5
			vertex -101.40805053710938 -24.7819766998291 0
		endloop
	endfacet
	facet normal -0.5225341268521093 -0.8526183708288859 0
		outer loop
			vertex -101.40805053710938 -24.7819766998291 0
			vertex -101.40805053710938 -24.7819766998291 5
			vertex -101.67565155029297 -24.61797523498535 0
		endloop
	endfacet
	facet normal -0.6493113952948442 -0.760522657085417 0
		outer loop
			vertex -101.67565155029297 -24.61797523498535 0
			vertex -101.67565155029297 -24.61797523498535 5
			vertex -101.91364288330078 -24.414785385131836 0
		endloop
	endfacet
	facet normal -0.7602633009249535 -0.6496150500617222 0
		outer loop
			vertex -101.91364288330078 -24.414785385131836 0
			vertex -101.91364288330078 -24.414785385131836 5
			vertex -102.11797332763672 -24.17565155029297 0
		endloop
	endfacet
	facet normal -0.07836958291769636 -0.9969243745005468 0
		outer loop
			vertex -100.81250762939453 -24.975433349609375 0
			vertex -100.5 -25 0
			vertex -100.5 -25 5
		endloop
	endfacet
	facet normal -0.8526167115105608 -0.5225368343503807 0
		outer loop
			vertex -102.11797332763672 -24.17565155029297 0
			vertex -102.11797332763672 -24.17565155029297 5
			vertex -102.28197479248047 -23.908052444458008 0
		endloop
	endfacet
	facet normal -0.9238681178988855 -0.3827109885147944 0
		outer loop
			vertex -102.28197479248047 -23.908052444458008 0
			vertex -102.28197479248047 -23.908052444458008 5
			vertex -102.40210723876953 -23.618051528930664 0
		endloop
	endfacet
	facet normal -0.9723901670935566 -0.23336101418138663 0
		outer loop
			vertex -102.40210723876953 -23.618051528930664 0
			vertex -102.40210723876953 -23.618051528930664 5
			vertex -102.47543334960938 -23.312509536743164 0
		endloop
	endfacet
	facet normal -0.9969108393752677 -0.0785415707514142 0
		outer loop
			vertex -102.47543334960938 -23.312509536743164 0
			vertex -102.47543334960938 -23.312509536743164 5
			vertex -102.5 -23.000690460205078 0
		endloop
	endfacet
	facet normal -1 0 0
		outer loop
			vertex -102.5 -23.000690460205078 0
			vertex -102.5 -23.000690460205078 5
			vertex -102.5 23.000690460205078 0
		endloop
	endfacet
	facet normal 0 0 -1
		outer loop
			vertex -100.5 -25 0
			vertex -102.5 -23.000690460205078 0
			vertex 102.5 23.000690460205078 0
		endloop
	endfacet
	facet normal -0.3827058021606501 -0.9238702663212912 0
		outer loop
			vertex -101.40805053710938 -24.7819766998291 0
			vertex -101.11804962158203 -24.90210723876953 5
			vertex -101.40805053710938 -24.7819766998291 5
		endloop
	endfacet
	facet normal -0.23336101418138663 -0.9723901670935566 0
		outer loop
			vertex -101.11804962158203 -24.90210723876953 0
			vertex -100.81250762939453 -24.975433349609375 5
			vertex -101.11804962158203 -24.90210723876953 5
		endloop
	endfacet
	facet normal -0.5225341268521093 -0.8526183708288859 0
		outer loop
			vertex -101.67565155029297 -24.61797523498535 0
			vertex -101.40805053710938 -24.7819766998291 5
			vertex -101.67565155029297 -24.61797523498535 5
		endloop
	endfacet
	facet normal -0.6493113952948442 -0.760522657085417 0
		outer loop
			vertex -101.91364288330078 -24.414785385131836 0
			vertex -101.67565155029297 -24.61797523498535 5
			vertex -101.91364288330078 -24.414785385131836 5
		endloop
	endfacet
	facet normal -0.7602633009249535 -0.6496150500617222 0
		outer loop
			vertex -102.11797332763672 -24.17565155029297 0
			vertex -101.91364288330078 -24.414785385131836 5
			vertex -102.11797332763672 -24.17565155029297 5
		endloop
	endfacet
	facet normal -0.07836958291769636 -0.9969243745005468 0
		outer loop
			vertex -100.81250762939453 -24.975433349609375 0
			vertex -100.5 -25 5
			vertex -100.81250762939453 -24.975433349609375 5
		endloop
	endfacet
	facet normal -0.8526167115105608 -0.5225368343503807 0
		outer loop
			vertex -102.28197479248047 -23.908052444458008 0
			vertex -102.11797332763672 -24.17565155029297 5
			vertex -102.28197479248047 -23.908052444458008 5
		endloop
	endfacet
	facet normal -0.9238681178988855 -0.3827109885147944 0
		outer loop
			vertex -102.40210723876953 -23.618051528930664 0
			vertex -102.28197479248047 -23.908052444458008 5
			vertex -102.40210723876953 -23.618051528930664 5
		endloop
	endfacet
	facet normal -0.9723901670935566 -0.23336101418138663 0
		outer loop
			vertex -102.47543334960938 -23.312509536743164 0
			vertex -102.40210723876953 -23.618051528930664 5
			vertex -102.47543334960938 -23.312509536743164 5
		endloop
	endfacet
	facet normal -0.9969108393752677 -0.0785415707514142 0
		outer loop
			vertex -102.5 -23.000690460205078 0
			vertex -102.47543334960938 -23.312509536743164 5
			vertex -102.5 -23.000690460205078 5
		endloop
	endfacet
	facet normal 0 0 1
		outer loop
			vertex -101.11804962158203 -24.90210723876953 5
			vertex -100.5 -25 5
			vertex -101.40805053710938 -24.7819766998291 5
		endloop
	endfacet
	facet normal 0 0 1
		outer loop
			vertex -101.67565155029297 -24.61797523498535 5
			vertex -100.5 -25 5
			vertex -101.91364288330078 -24.414785385131836 5
		endloop
	endfacet
	facet normal 0 0 1
		outer loop
			vertex -101.40805053710938 -24.7819766998291 5
			vertex -100.5 -25 5
			vertex -101.67565155029297 -24.61797523498535 5
		endloop
	endfacet
	facet normal 0 0 1
		outer loop
			vertex -101.91364288330078 -24.414785385131836 5
			vertex -100.5 -25 5
			vertex -102.11797332763672 -24.17565155029297 5
		endloop
	endfacet
	facet normal 0 0 1
		outer loop
			vertex -100.5 -25 5
			vertex -102.28197479248047 -23.908052444458008 5
			vertex -102.11797332763672 -24.17565155029297 5
		endloop
	endfacet
	facet normal 0 0 1
		outer loop
			vertex -101.11804962158203 -24.90210723876953 5
			vertex -100.81250762939453 -24.975433349609375 5
			vertex -100.5 -25 5
		endloop
	endfacet
	facet normal 0 0 1
		outer loop
			vertex -100.5 -25 5
			vertex -102.40210723876953 -23.618051528930664 5
			vertex -102.28197479248047 -23.908052444458008 5
		endloop
	endfacet
	facet normal 0 0 1
		outer loop
			vertex -100.5 -25 5
			vertex -102.47543334960938 -23.312509536743164 5
			vertex -102.40210723876953 -23.618051528930664 5
		endloop
	endfacet
	facet normal 0 0 1
		outer loop
			vertex -100.5 -25 5
			vertex -102.5 -23.000690460205078 5
			vertex -102.47543334960938 -23.312509536743164 5
		endloop
	endfacet
	facet normal 0 0 1
		outer loop
			vertex -100.5 -25 5
			vertex -99.91364288330078 -22.414785385131836 5
			vertex -102.5 -23.000690460205078 5
		endloop
	endfacet
	facet normal 0 0 1
		outer loop
			vertex -100.5 -25 5
			vertex -99.40805053710938 -22.7819766998291 5
			vertex -99.67565155029297 -22.61797523498535 5
		endloop
	endfacet
	facet normal 0 0 1
		outer loop
			vertex -100.5 -25 5
			vertex -99.11804962158203 -22.90210723876953 5
			vertex -99.40805053710938 -22.7819766998291 5
		endloop
	endfacet
	facet normal 0 0 1
		outer loop
			vertex -100.5 -25 5
			vertex -98.81250762939453 -22.975433349609375 5
			vertex -99.11804962158203 -22.90210723876953 5
		endloop
	endfacet
	facet normal 0 0 1
		outer loop
			vertex -100.5 -25 5
			vertex -98.5 -23 5
			vertex -98.81250762939453 -22.975433349609375 5
		endloop
	endfacet
	facet normal 0 0 1
		outer loop
			vertex -100.5 -25 5
			vertex -99.67565155029297 -22.61797523498535 5
			vertex -99.91364288330078 -22.414785385131836 5
		endloop
	endfacet
	facet normal 0 0 1
		outer loop
			vertex -102.5 -23.000690460205078 5
			vertex -100.11797332763672 -22.17565155029297 5
			vertex -100.28197479248047 -21.908052444458008 5
		endloop
	endfacet
	facet normal 0 0 1
		outer loop
			vertex -102.5 -23.000690460205078 5
			vertex -100.28197479248047 -21.908052444458008 5
			vertex -100.40210723876953 -21.618051528930664 5
		endloop
	endfacet
	facet normal 0 0 1
		outer loop
			vertex -102.5 -23.000690460205078 5
			vertex -100.40210723876953 -21.618051528930664 5
			vertex -100.47543334960938 -21.312509536743164 5
		endloop
	endfacet
	facet normal 0 0 1
		outer loop
			vertex -102.5 -23.000690460205078 5
			vertex -99.91364288330078 -22.414785385131836 5
			vertex -100.11797332763672 -22.17565155029297 5
		endloop
	endfacet
	facet normal 0 0 1
		outer loop
			vertex -102.5 -23.000690460205078 5
			vertex -100.47543334960938 -21.312509536743164 5
			vertex -100.5 -21.000690460205078 5
		endloop
	endfacet
	facet normal 0 0 1
		outer loop
			vertex -102.5 -23.000690460205078 5
			vertex -100.5 -21.000690460205078 5
			vertex -100.5 21.000690460205078 5
		endloop
	endfacet
	facet normal 0 -1 0
		outer loop
			vertex -100.5 -25 0
			vertex 100.5 -25 5
			vertex -100.5 -25 5
		endloop
	endfacet
	facet normal 0 0 1
		outer loop
			vertex -100.5 -25 5
			vertex 102.5 -23.000690460205078 5
			vertex -98.5 -23 5
		endloop
	endfacet
	facet normal 0 0 -1
		outer loop
			vertex -102.5 23.000690460205078 0
			vertex -102.47543334960938 23.312509536743164 0
			vertex -100.5 25 0
		endloop
	endfacet
	facet normal 0 0 -1
		outer loop
			vertex -102.47543334960938 23.312509536743164 0
			vertex -102.40210723876953 23.618051528930664 0
			vertex -100.5 25 0
		endloop
	endfacet
	facet normal 0 0 -1
		outer loop
			vertex -102.40210723876953 23.618051528930664 0
			vertex -102.28197479248047 23.908052444458008 0
			vertex -100.5 25 0
		endloop
	endfacet
	facet normal 0 0 -1
		outer loop
			vertex -102.28197479248047 23.908052444458008 0
			vertex -102.11797332763672 24.17565155029297 0
			vertex -100.5 25 0
		endloop
	endfacet
	facet normal 0 0 -1
		outer loop
			vertex -102.11797332763672 24.17565155029297 0
			vertex -101.91364288330078 24.414785385131836 0
			vertex -100.5 25 0
		endloop
	endfacet
	facet normal 0 0 -1
		outer loop
			vertex -101.91364288330078 24.414785385131836 0
			vertex -101.67565155029297 24.61797523498535 0
			vertex -100.5 25 0
		endloop
	endfacet
	facet normal 0 0 -1
		outer loop
			vertex -101.67565155029297 24.61797523498535 0
			vertex -101.40805053710938 24.7819766998291 0
			vertex -100.5 25 0
		endloop
	endfacet
	facet normal 0 0 -1
		outer loop
			vertex -101.40805053710938 24.7819766998291 0
			vertex -101.11804962158203 24.90210723876953 0
			vertex -100.5 25 0
		endloop
	endfacet
	facet normal 0 0 -1
		outer loop
			vertex -101.11804962158203 24.90210723876953 0
			vertex -100.81250762939453 24.975433349609375 0
			vertex -100.5 25 0
		endloop
	endfacet
	facet normal -0.9969108393752677 0.0785415707514142 0
		outer loop
			vertex -102.5 23.000690460205078 0
			vertex -102.5 23.000690460205078 5
			vertex -102.47543334960938 23.312509536743164 0
		endloop
	endfacet
	facet normal -0.9723901670935566 0.23336101418138663 0
		outer loop
			vertex -102.47543334960938 23.312509536743164 0
			vertex -102.47543334960938 23.312509536743164 5
			vertex -102.40210723876953 23.618051528930664 0
		endloop
	endfacet
	facet normal -0.9238681178988855 0.3827109885147944 0
		outer loop
			vertex -102.40210723876953 23.618051528930664 0
			vertex -102.40210723876953 23.618051528930664 5
			vertex -102.28197479248047 23.908052444458008 0
		endloop
	endfacet
	facet normal -0.8526167115105608 0.5225368343503807 0
		outer loop
			vertex -102.28197479248047 23.908052444458008 0
			vertex -102.28197479248047 23.908052444458008 5
			vertex -102.11797332763672 24.17565155029297 0
		endloop
	endfacet
	facet normal -0.7602633009249535 0.6496150500617222 0
		outer loop
			vertex -102.11797332763672 24.17565155029297 0
			vertex -102.11797332763672 24.17565155029297 5
			vertex -101.91364288330078 24.414785385131836 0
		endloop
	endfacet
	facet normal -0.6493113952948442 0.760522657085417 0
		outer loop
			vertex -101.91364288330078 24.414785385131836 0
			vertex -101.91364288330078 24.414785385131836 5
			vertex -101.67565155029297 24.61797523498535 0
		endloop
	endfacet
	facet normal -0.5225341268521093 0.8526183708288859 0
		outer loop
			vertex -101.67565155029297 24.61797523498535 0
			vertex -101.67565155029297 24.61797523498535 5
			vertex -101.40805053710938 24.7819766998291 0
		endloop
	endfacet
	facet normal -0.3827058021606501 0.9238702663212912 0
		outer loop
			vertex -101.40805053710938 24.7819766998291 0
			vertex -101.40805053710938 24.7819766998291 5
			vertex -101.11804962158203 24.90210723876953 0
		endloop
	endfacet
	facet normal -0.23336101418138663 0.9723901670935566 0
		outer loop
			vertex -101.11804962158203 24.90210723876953 0
			vertex -101.11804962158203 24.90210723876953 5
			vertex -100.81250762939453 24.975433349609375 0
		endloop
	endfacet
	facet normal -0.07836958291769636 0.9969243745005468 0
		outer loop
			vertex -100.81250762939453 24.975433349609375 0
			vertex -100.81250762939453 24.975433349609375 5
			vertex -100.5 25 0
		endloop
	endfacet
	facet normal 0 0 -1
		outer loop
			vertex -102.5 -23.000690460205078 0
			vertex -102.5 23.000690460205078 0
			vertex 100.5 25 0
		endloop
	endfacet
	facet normal 0 0 -1
		outer loop
			vertex -102.5 23.000690460205078 0
			vertex -100.5 25 0
			vertex 100.5 25 0
		endloop
	endfacet
	facet normal 0 1 0
		outer loop
			vertex -100.5 25 0
			vertex -100.5 25 5
			vertex 100.5 25 0
		endloop
	endfacet
	facet normal -1 0 0
		outer loop
			vertex -102.5 -23.000690460205078 5
			vertex -102.5 23.000690460205078 5
			vertex -102.5 23.000690460205078 0
		endloop
	endfacet
	facet normal 0 0 1
		outer loop
			vertex -102.5 -23.000690460205078 5
			vertex -100.5 21.000690460205078 5
			vertex -102.5 23.000690460205078 5
		endloop
	endfacet
	facet normal -0.9969108393752677 0.0785415707514142 0
		outer loop
			vertex -102.47543334960938 23.312509536743164 0
			vertex -102.5 23.000690460205078 5
			vertex -102.47543334960938 23.312509536743164 5
		endloop
	endfacet
	facet normal -0.9723901670935566 0.23336101418138663 0
		outer loop
			vertex -102.40210723876953 23.618051528930664 0
			vertex -102.47543334960938 23.312509536743164 5
			vertex -102.40210723876953 23.618051528930664 5
		endloop
	endfacet
	facet normal -0.9238681178988855 0.3827109885147944 0
		outer loop
			vertex -102.28197479248047 23.908052444458008 0
			vertex -102.40210723876953 23.618051528930664 5
			vertex -102.28197479248047 23.908052444458008 5
		endloop
	endfacet
	facet normal -0.8526167115105608 0.5225368343503807 0
		outer loop
			vertex -102.11797332763672 24.17565155029297 0
			vertex -102.28197479248047 23.908052444458008 5
			vertex -102.11797332763672 24.17565155029297 5
		endloop
	endfacet
	facet normal -0.7602633009249535 0.6496150500617222 0
		outer loop
			vertex -101.91364288330078 24.414785385131836 0
			vertex -102.11797332763672 24.17565155029297 5
			vertex -101.91364288330078 24.414785385131836 5
		endloop
	endfacet
	facet normal -0.6493113952948442 0.760522657085417 0
		outer loop
			vertex -101.67565155029297 24.61797523498535 0
			vertex -101.91364288330078 24.414785385131836 5
			vertex -101.67565155029297 24.61797523498535 5
		endloop
	endfacet
	facet normal -0.5225341268521093 0.8526183708288859 0
		outer loop
			vertex -101.40805053710938 24.7819766998291 0
			vertex -101.67565155029297 24.61797523498535 5
			vertex -101.40805053710938 24.7819766998291 5
		endloop
	endfacet
	facet normal -0.3827058021606501 0.9238702663212912 0
		outer loop
			vertex -101.11804962158203 24.90210723876953 0
			vertex -101.40805053710938 24.7819766998291 5
			vertex -101.11804962158203 24.90210723876953 5
		endloop
	endfacet
	facet normal -0.23336101418138663 0.9723901670935566 0
		outer loop
			vertex -100.81250762939453 24.975433349609375 0
			vertex -101.11804962158203 24.90210723876953 5
			vertex -100.81250762939453 24.975433349609375 5
		endloop
	endfacet
	facet normal -0.07836958291769636 0.9969243745005468 0
		outer loop
			vertex -100.5 25 0
			vertex -100.81250762939453 24.975433349609375 5
			vertex -100.5 25 5
		endloop
	endfacet
	facet normal 0 0 1
		outer loop
			vertex -100.5 21.000690460205078 5
			vertex -100.47543334960938 21.312509536743164 5
			vertex -102.5 23.000690460205078 5
		endloop
	endfacet
	facet normal 0 0 1
		outer loop
			vertex -100.47543334960938 21.312509536743164 5
			vertex -100.40210723876953 21.618051528930664 5
			vertex -102.5 23.000690460205078 5
		endloop
	endfacet
	facet normal 0 0 1
		outer loop
			vertex -100.40210723876953 21.618051528930664 5
			vertex -100.28197479248047 21.908052444458008 5
			vertex -102.5 23.000690460205078 5
		endloop
	endfacet
	facet normal 0 0 1
		outer loop
			vertex -100.28197479248047 21.908052444458008 5
			vertex -100.11797332763672 22.17565155029297 5
			vertex -102.5 23.000690460205078 5
		endloop
	endfacet
	facet normal 0 0 1
		outer loop
			vertex -100.11797332763672 22.17565155029297 5
			vertex -99.91364288330078 22.414785385131836 5
			vertex -102.5 23.000690460205078 5
		endloop
	endfacet
	facet normal 0 0 1
		outer loop
			vertex -99.91364288330078 22.414785385131836 5
			vertex -99.67565155029297 22.61797523498535 5
			vertex -102.5 23.000690460205078 5
		endloop
	endfacet
	facet normal 0 0 1
		outer loop
			vertex -99.67565155029297 22.61797523498535 5
			vertex -99.40805053710938 22.7819766998291 5
			vertex -102.5 23.000690460205078 5
		endloop
	endfacet
	facet normal 0 0 1
		outer loop
			vertex -102.5 23.000690460205078 5
			vertex -99.40805053710938 22.7819766998291 5
			vertex -99.11804962158203 22.90210723876953 5
		endloop
	endfacet
	facet normal 0 0 1
		outer loop
			vertex -102.5 23.000690460205078 5
			vertex -99.11804962158203 22.90210723876953 5
			vertex -98.81250762939453 22.975433349609375 5
		endloop
	endfacet
	facet normal 0 0 1
		outer loop
			vertex -102.5 23.000690460205078 5
			vertex -98.81250762939453 22.975433349609375 5
			vertex -98.5 23 5
		endloop
	endfacet
	facet normal 0 0 1
		outer loop
			vertex -102.5 23.000690460205078 5
			vertex -100.5 25 5
			vertex -102.47543334960938 23.312509536743164 5
		endloop
	endfacet
	facet normal 0 0 1
		outer loop
			vertex -102.47543334960938 23.312509536743164 5
			vertex -100.5 25 5
			vertex -102.40210723876953 23.618051528930664 5
		endloop
	endfacet
	facet normal 0 0 1
		outer loop
			vertex -102.40210723876953 23.618051528930664 5
			vertex -100.5 25 5
			vertex -102.28197479248047 23.908052444458008 5
		endloop
	endfacet
	facet normal 0 0 1
		outer loop
			vertex -102.28197479248047 23.908052444458008 5
			vertex -100.5 25 5
			vertex -102.11797332763672 24.17565155029297 5
		endloop
	endfacet
	facet normal 0 0 1
		outer loop
			vertex -102.11797332763672 24.17565155029297 5
			vertex -100.5 25 5
			vertex -101.91364288330078 24.414785385131836 5
		endloop
	endfacet
	facet normal 0 0 1
		outer loop
			vertex -101.91364288330078 24.414785385131836 5
			vertex -100.5 25 5
			vertex -101.67565155029297 24.61797523498535 5
		endloop
	endfacet
	facet normal 0 0 1
		outer loop
			vertex -101.67565155029297 24.61797523498535 5
			vertex -100.5 25 5
			vertex -101.40805053710938 24.7819766998291 5
		endloop
	endfacet
	facet normal 0 0 1
		outer loop
			vertex -101.40805053710938 24.7819766998291 5
			vertex -100.5 25 5
			vertex -101.11804962158203 24.90210723876953 5
		endloop
	endfacet
	facet normal 0 0 1
		outer loop
			vertex -101.11804962158203 24.90210723876953 5
			vertex -100.5 25 5
			vertex -100.81250762939453 24.975433349609375 5
		endloop
	endfacet
	facet normal 0 0 1
		outer loop
			vertex -102.5 23.000690460205078 5
			vertex -98.5 23 5
			vertex 98.5 23 5
		endloop
	endfacet
	facet normal 0 0 1
		outer loop
			vertex -102.5 23.000690460205078 5
			vertex 100.5 25 5
			vertex -100.5 25 5
		endloop
	endfacet
	facet normal 0 0 -1
		outer loop
			vertex -100.5 -25 0
			vertex 102.5 -23.000690460205078 0
			vertex 100.5 -25 0
		endloop
	endfacet
	facet normal 0 -1 0
		outer loop
			vertex -100.5 -25 0
			vertex 100.5 -25 0
			vertex 100.5 -25 5
		endloop
	endfacet
	facet normal 0 0 -1
		outer loop
			vertex -100.5 -25 0
			vertex 102.5 23.000690460205078 0
			vertex 102.5 -23.000690460205078 0
		endloop
	endfacet
	facet normal 0 0 -1
		outer loop
			vertex 100.5 -25 0
			vertex 101.11804962158203 -24.90210723876953 0
			vertex 100.81250762939453 -24.975433349609375 0
		endloop
	endfacet
	facet normal 0 0 -1
		outer loop
			vertex 100.5 -25 0
			vertex 101.40805053710938 -24.7819766998291 0
			vertex 101.11804962158203 -24.90210723876953 0
		endloop
	endfacet
	facet normal 0 0 -1
		outer loop
			vertex 100.5 -25 0
			vertex 101.67565155029297 -24.61797523498535 0
			vertex 101.40805053710938 -24.7819766998291 0
		endloop
	endfacet
	facet normal 0 0 -1
		outer loop
			vertex 100.5 -25 0
			vertex 101.91364288330078 -24.414785385131836 0
			vertex 101.67565155029297 -24.61797523498535 0
		endloop
	endfacet
	facet normal 0 0 -1
		outer loop
			vertex 100.5 -25 0
			vertex 102.11797332763672 -24.17565155029297 0
			vertex 101.91364288330078 -24.414785385131836 0
		endloop
	endfacet
	facet normal 0 0 -1
		outer loop
			vertex 100.5 -25 0
			vertex 102.28197479248047 -23.908052444458008 0
			vertex 102.11797332763672 -24.17565155029297 0
		endloop
	endfacet
	facet normal 0 0 -1
		outer loop
			vertex 100.5 -25 0
			vertex 102.40210723876953 -23.618051528930664 0
			vertex 102.28197479248047 -23.908052444458008 0
		endloop
	endfacet
	facet normal 0 0 -1
		outer loop
			vertex 100.5 -25 0
			vertex 102.47543334960938 -23.312509536743164 0
			vertex 102.40210723876953 -23.618051528930664 0
		endloop
	endfacet
	facet normal 0 0 -1
		outer loop
			vertex 100.5 -25 0
			vertex 102.5 -23.000690460205078 0
			vertex 102.47543334960938 -23.312509536743164 0
		endloop
	endfacet
	facet normal 0.07836958291769636 -0.9969243745005468 0
		outer loop
			vertex 100.5 -25 0
			vertex 100.81250762939453 -24.975433349609375 0
			vertex 100.81250762939453 -24.975433349609375 5
		endloop
	endfacet
	facet normal 0.23336101418138663 -0.9723901670935566 0
		outer loop
			vertex 100.81250762939453 -24.975433349609375 0
			vertex 101.11804962158203 -24.90210723876953 0
			vertex 101.11804962158203 -24.90210723876953 5
		endloop
	endfacet
	facet normal 0.3827058021606501 -0.9238702663212912 0
		outer loop
			vertex 101.11804962158203 -24.90210723876953 0
			vertex 101.40805053710938 -24.7819766998291 0
			vertex 101.40805053710938 -24.7819766998291 5
		endloop
	endfacet
	facet normal 0.5225341268521093 -0.8526183708288859 0
		outer loop
			vertex 101.40805053710938 -24.7819766998291 0
			vertex 101.67565155029297 -24.61797523498535 0
			vertex 101.67565155029297 -24.61797523498535 5
		endloop
	endfacet
	facet normal 0.6493113952948442 -0.760522657085417 0
		outer loop
			vertex 101.67565155029297 -24.61797523498535 0
			vertex 101.91364288330078 -24.414785385131836 0
			vertex 101.91364288330078 -24.414785385131836 5
		endloop
	endfacet
	facet normal 0.7602633009249535 -0.6496150500617222 0
		outer loop
			vertex 101.91364288330078 -24.414785385131836 0
			vertex 102.11797332763672 -24.17565155029297 0
			vertex 102.11797332763672 -24.17565155029297 5
		endloop
	endfacet
	facet normal 0.8526167115105608 -0.5225368343503807 0
		outer loop
			vertex 102.11797332763672 -24.17565155029297 0
			vertex 102.28197479248047 -23.908052444458008 0
			vertex 102.28197479248047 -23.908052444458008 5
		endloop
	endfacet
	facet normal 0.9238681178988855 -0.3827109885147944 0
		outer loop
			vertex 102.28197479248047 -23.908052444458008 0
			vertex 102.40210723876953 -23.618051528930664 0
			vertex 102.40210723876953 -23.618051528930664 5
		endloop
	endfacet
	facet normal 0.9723901670935566 -0.23336101418138663 0
		outer loop
			vertex 102.40210723876953 -23.618051528930664 0
			vertex 102.47543334960938 -23.312509536743164 0
			vertex 102.47543334960938 -23.312509536743164 5
		endloop
	endfacet
	facet normal 0.9969108393752677 -0.0785415707514142 0
		outer loop
			vertex 102.47543334960938 -23.312509536743164 0
			vertex 102.5 -23.000690460205078 0
			vertex 102.5 -23.000690460205078 5
		endloop
	endfacet
	facet normal 0 0 1
		outer loop
			vertex -100.5 -25 5
			vertex 100.5 -25 5
			vertex 102.5 -23.000690460205078 5
		endloop
	endfacet
	facet normal 0 0 1
		outer loop
			vertex -98.5 -23 5
			vertex 102.5 -23.000690460205078 5
			vertex 98.5 -23 5
		endloop
	endfacet
	facet normal 0.07836958291769636 -0.9969243745005468 0
		outer loop
			vertex 100.5 -25 0
			vertex 100.81250762939453 -24.975433349609375 5
			vertex 100.5 -25 5
		endloop
	endfacet
	facet normal 0.23336101418138663 -0.9723901670935566 0
		outer loop
			vertex 100.81250762939453 -24.975433349609375 0
			vertex 101.11804962158203 -24.90210723876953 5
			vertex 100.81250762939453 -24.975433349609375 5
		endloop
	endfacet
	facet normal 0.3827058021606501 -0.9238702663212912 0
		outer loop
			vertex 101.11804962158203 -24.90210723876953 0
			vertex 101.40805053710938 -24.7819766998291 5
			vertex 101.11804962158203 -24.90210723876953 5
		endloop
	endfacet
	facet normal 0.5225341268521093 -0.8526183708288859 0
		outer loop
			vertex 101.40805053710938 -24.7819766998291 0
			vertex 101.67565155029297 -24.61797523498535 5
			vertex 101.40805053710938 -24.7819766998291 5
		endloop
	endfacet
	facet normal 0.6493113952948442 -0.760522657085417 0
		outer loop
			vertex 101.67565155029297 -24.61797523498535 0
			vertex 101.91364288330078 -24.414785385131836 5
			vertex 101.67565155029297 -24.61797523498535 5
		endloop
	endfacet
	facet normal 0.7602633009249535 -0.6496150500617222 0
		outer loop
			vertex 101.91364288330078 -24.414785385131836 0
			vertex 102.11797332763672 -24.17565155029297 5
			vertex 101.91364288330078 -24.414785385131836 5
		endloop
	endfacet
	facet normal 0.8526167115105608 -0.5225368343503807 0
		outer loop
			vertex 102.11797332763672 -24.17565155029297 0
			vertex 102.28197479248047 -23.908052444458008 5
			vertex 102.11797332763672 -24.17565155029297 5
		endloop
	endfacet
	facet normal 0.9238681178988855 -0.3827109885147944 0
		outer loop
			vertex 102.28197479248047 -23.908052444458008 0
			vertex 102.40210723876953 -23.618051528930664 5
			vertex 102.28197479248047 -23.908052444458008 5
		endloop
	endfacet
	facet normal 0.9723901670935566 -0.23336101418138663 0
		outer loop
			vertex 102.40210723876953 -23.618051528930664 0
			vertex 102.47543334960938 -23.312509536743164 5
			vertex 102.40210723876953 -23.618051528930664 5
		endloop
	endfacet
	facet normal 0.9969108393752677 -0.0785415707514142 0
		outer loop
			vertex 102.47543334960938 -23.312509536743164 0
			vertex 102.5 -23.000690460205078 5
			vertex 102.47543334960938 -23.312509536743164 5
		endloop
	endfacet
	facet normal 0 0 1
		outer loop
			vertex 100.5 -25 5
			vertex 100.81250762939453 -24.975433349609375 5
			vertex 101.11804962158203 -24.90210723876953 5
		endloop
	endfacet
	facet normal 0 0 1
		outer loop
			vertex 100.5 -25 5
			vertex 101.11804962158203 -24.90210723876953 5
			vertex 101.40805053710938 -24.7819766998291 5
		endloop
	endfacet
	facet normal 0 0 1
		outer loop
			vertex 100.5 -25 5
			vertex 101.40805053710938 -24.7819766998291 5
			vertex 101.67565155029297 -24.61797523498535 5
		endloop
	endfacet
	facet normal 0 0 1
		outer loop
			vertex 100.5 -25 5
			vertex 101.67565155029297 -24.61797523498535 5
			vertex 101.91364288330078 -24.414785385131836 5
		endloop
	endfacet
	facet normal 0 0 1
		outer loop
			vertex 100.5 -25 5
			vertex 101.91364288330078 -24.414785385131836 5
			vertex 102.11797332763672 -24.17565155029297 5
		endloop
	endfacet
	facet normal 0 0 1
		outer loop
			vertex 100.5 -25 5
			vertex 102.11797332763672 -24.17565155029297 5
			vertex 102.28197479248047 -23.908052444458008 5
		endloop
	endfacet
	facet normal 0 0 1
		outer loop
			vertex 100.5 -25 5
			vertex 102.28197479248047 -23.908052444458008 5
			vertex 102.40210723876953 -23.618051528930664 5
		endloop
	endfacet
	facet normal 0 0 1
		outer loop
			vertex 100.5 -25 5
			vertex 102.40210723876953 -23.618051528930664 5
			vertex 102.47543334960938 -23.312509536743164 5
		endloop
	endfacet
	facet normal 0 0 1
		outer loop
			vertex 100.5 -25 5
			vertex 102.47543334960938 -23.312509536743164 5
			vertex 102.5 -23.000690460205078 5
		endloop
	endfacet
	facet normal 0 0 1
		outer loop
			vertex 98.5 -23 5
			vertex 102.5 -23.000690460205078 5
			vertex 98.81250762939453 -22.975433349609375 5
		endloop
	endfacet
	facet normal 0 0 1
		outer loop
			vertex 98.81250762939453 -22.975433349609375 5
			vertex 102.5 -23.000690460205078 5
			vertex 99.11804962158203 -22.90210723876953 5
		endloop
	endfacet
	facet normal 0 0 1
		outer loop
			vertex 99.11804962158203 -22.90210723876953 5
			vertex 102.5 -23.000690460205078 5
			vertex 99.40805053710938 -22.7819766998291 5
		endloop
	endfacet
	facet normal 0 0 1
		outer loop
			vertex 99.40805053710938 -22.7819766998291 5
			vertex 102.5 -23.000690460205078 5
			vertex 99.67565155029297 -22.61797523498535 5
		endloop
	endfacet
	facet normal 0 0 1
		outer loop
			vertex 102.5 -23.000690460205078 5
			vertex 99.91364288330078 -22.414785385131836 5
			vertex 99.67565155029297 -22.61797523498535 5
		endloop
	endfacet
	facet normal 0 0 1
		outer loop
			vertex 102.5 -23.000690460205078 5
			vertex 100.11797332763672 -22.17565155029297 5
			vertex 99.91364288330078 -22.414785385131836 5
		endloop
	endfacet
	facet normal 0 0 1
		outer loop
			vertex 102.5 -23.000690460205078 5
			vertex 100.28197479248047 -21.908052444458008 5
			vertex 100.11797332763672 -22.17565155029297 5
		endloop
	endfacet
	facet normal 0 0 1
		outer loop
			vertex 102.5 -23.000690460205078 5
			vertex 100.40210723876953 -21.618051528930664 5
			vertex 100.28197479248047 -21.908052444458008 5
		endloop
	endfacet
	facet normal 0 0 1
		outer loop
			vertex 102.5 -23.000690460205078 5
			vertex 100.47543334960938 -21.312509536743164 5
			vertex 100.40210723876953 -21.618051528930664 5
		endloop
	endfacet
	facet normal 0 0 1
		outer loop
			vertex 102.5 -23.000690460205078 5
			vertex 100.5 -21.000690460205078 5
			vertex 100.47543334960938 -21.312509536743164 5
		endloop
	endfacet
	facet normal 1 0 0
		outer loop
			vertex 102.5 -23.000690460205078 0
			vertex 102.5 23.000690460205078 5
			vertex 102.5 -23.000690460205078 5
		endloop
	endfacet
	facet normal 0 0 1
		outer loop
			vertex 102.5 -23.000690460205078 5
			vertex 102.5 23.000690460205078 5
			vertex 100.5 -21.000690460205078 5
		endloop
	endfacet
	facet normal 0 0 -1
		outer loop
			vertex -102.5 -23.000690460205078 0
			vertex 100.5 25 0
			vertex 102.5 23.000690460205078 0
		endloop
	endfacet
	facet normal 1 0 0
		outer loop
			vertex 102.5 -23.000690460205078 0
			vertex 102.5 23.000690460205078 0
			vertex 102.5 23.000690460205078 5
		endloop
	endfacet
	facet normal 0 0 -1
		outer loop
			vertex 102.5 23.000690460205078 0
			vertex 100.5 25 0
			vertex 102.47543334960938 23.312509536743164 0
		endloop
	endfacet
	facet normal 0 0 -1
		outer loop
			vertex 102.47543334960938 23.312509536743164 0
			vertex 100.5 25 0
			vertex 102.40210723876953 23.618051528930664 0
		endloop
	endfacet
	facet normal 0 0 -1
		outer loop
			vertex 102.40210723876953 23.618051528930664 0
			vertex 100.5 25 0
			vertex 102.28197479248047 23.908052444458008 0
		endloop
	endfacet
	facet normal 0 0 -1
		outer loop
			vertex 100.5 25 0
			vertex 100.81250762939453 24.975433349609375 0
			vertex 101.11804962158203 24.90210723876953 0
		endloop
	endfacet
	facet normal 0 0 -1
		outer loop
			vertex 102.28197479248047 23.908052444458008 0
			vertex 100.5 25 0
			vertex 102.11797332763672 24.17565155029297 0
		endloop
	endfacet
	facet normal 0 0 -1
		outer loop
			vertex 102.11797332763672 24.17565155029297 0
			vertex 100.5 25 0
			vertex 101.91364288330078 24.414785385131836 0
		endloop
	endfacet
	facet normal 0 0 -1
		outer loop
			vertex 100.5 25 0
			vertex 101.40805053710938 24.7819766998291 0
			vertex 101.67565155029297 24.61797523498535 0
		endloop
	endfacet
	facet normal 0 0 -1
		outer loop
			vertex 100.5 25 0
			vertex 101.67565155029297 24.61797523498535 0
			vertex 101.91364288330078 24.414785385131836 0
		endloop
	endfacet
	facet normal 0 0 -1
		outer loop
			vertex 100.5 25 0
			vertex 101.11804962158203 24.90210723876953 0
			vertex 101.40805053710938 24.7819766998291 0
		endloop
	endfacet
	facet normal 0.9969108393752677 0.0785415707514142 0
		outer loop
			vertex 102.5 23.000690460205078 0
			vertex 102.47543334960938 23.312509536743164 0
			vertex 102.47543334960938 23.312509536743164 5
		endloop
	endfacet
	facet normal 0.9723901670935566 0.23336101418138663 0
		outer loop
			vertex 102.47543334960938 23.312509536743164 0
			vertex 102.40210723876953 23.618051528930664 0
			vertex 102.40210723876953 23.618051528930664 5
		endloop
	endfacet
	facet normal 0.9238681178988855 0.3827109885147944 0
		outer loop
			vertex 102.40210723876953 23.618051528930664 0
			vertex 102.28197479248047 23.908052444458008 0
			vertex 102.28197479248047 23.908052444458008 5
		endloop
	endfacet
	facet normal 0.8526167115105608 0.5225368343503807 0
		outer loop
			vertex 102.28197479248047 23.908052444458008 0
			vertex 102.11797332763672 24.17565155029297 0
			vertex 102.11797332763672 24.17565155029297 5
		endloop
	endfacet
	facet normal 0.07836958291769636 0.9969243745005468 0
		outer loop
			vertex 100.5 25 0
			vertex 100.5 25 5
			vertex 100.81250762939453 24.975433349609375 0
		endloop
	endfacet
	facet normal 0.7602633009249535 0.6496150500617222 0
		outer loop
			vertex 102.11797332763672 24.17565155029297 0
			vertex 101.91364288330078 24.414785385131836 0
			vertex 101.91364288330078 24.414785385131836 5
		endloop
	endfacet
	facet normal 0.6493113952948442 0.760522657085417 0
		outer loop
			vertex 101.91364288330078 24.414785385131836 0
			vertex 101.67565155029297 24.61797523498535 0
			vertex 101.67565155029297 24.61797523498535 5
		endloop
	endfacet
	facet normal 0.5225341268521093 0.8526183708288859 0
		outer loop
			vertex 101.67565155029297 24.61797523498535 0
			vertex 101.40805053710938 24.7819766998291 0
			vertex 101.40805053710938 24.7819766998291 5
		endloop
	endfacet
	facet normal 0.3827058021606501 0.9238702663212912 0
		outer loop
			vertex 101.40805053710938 24.7819766998291 0
			vertex 101.11804962158203 24.90210723876953 0
			vertex 101.11804962158203 24.90210723876953 5
		endloop
	endfacet
	facet normal 0.23336101418138663 0.9723901670935566 0
		outer loop
			vertex 100.81250762939453 24.975433349609375 0
			vertex 100.81250762939453 24.975433349609375 5
			vertex 101.11804962158203 24.90210723876953 0
		endloop
	endfacet
	facet normal 0 1 0
		outer loop
			vertex -100.5 25 5
			vertex 100.5 25 5
			vertex 100.5 25 0
		endloop
	endfacet
	facet normal 0 0 1
		outer loop
			vertex -102.5 23.000690460205078 5
			vertex 98.5 23 5
			vertex 100.5 25 5
		endloop
	endfacet
	facet normal 0 0 1
		outer loop
			vertex 100.5 -21.000690460205078 5
			vertex 102.5 23.000690460205078 5
			vertex 100.5 21.000690460205078 5
		endloop
	endfacet
	facet normal 0.9969108393752677 0.0785415707514142 0
		outer loop
			vertex 102.5 23.000690460205078 0
			vertex 102.47543334960938 23.312509536743164 5
			vertex 102.5 23.000690460205078 5
		endloop
	endfacet
	facet normal 0.9723901670935566 0.23336101418138663 0
		outer loop
			vertex 102.47543334960938 23.312509536743164 0
			vertex 102.40210723876953 23.618051528930664 5
			vertex 102.47543334960938 23.312509536743164 5
		endloop
	endfacet
	facet normal 0.9238681178988855 0.3827109885147944 0
		outer loop
			vertex 102.40210723876953 23.618051528930664 0
			vertex 102.28197479248047 23.908052444458008 5
			vertex 102.40210723876953 23.618051528930664 5
		endloop
	endfacet
	facet normal 0.8526167115105608 0.5225368343503807 0
		outer loop
			vertex 102.28197479248047 23.908052444458008 0
			vertex 102.11797332763672 24.17565155029297 5
			vertex 102.28197479248047 23.908052444458008 5
		endloop
	endfacet
	facet normal 0.07836958291769636 0.9969243745005468 0
		outer loop
			vertex 100.81250762939453 24.975433349609375 0
			vertex 100.5 25 5
			vertex 100.81250762939453 24.975433349609375 5
		endloop
	endfacet
	facet normal 0.7602633009249535 0.6496150500617222 0
		outer loop
			vertex 102.11797332763672 24.17565155029297 0
			vertex 101.91364288330078 24.414785385131836 5
			vertex 102.11797332763672 24.17565155029297 5
		endloop
	endfacet
	facet normal 0.6493113952948442 0.760522657085417 0
		outer loop
			vertex 101.91364288330078 24.414785385131836 0
			vertex 101.67565155029297 24.61797523498535 5
			vertex 101.91364288330078 24.414785385131836 5
		endloop
	endfacet
	facet normal 0.5225341268521093 0.8526183708288859 0
		outer loop
			vertex 101.67565155029297 24.61797523498535 0
			vertex 101.40805053710938 24.7819766998291 5
			vertex 101.67565155029297 24.61797523498535 5
		endloop
	endfacet
	facet normal 0.23336101418138663 0.9723901670935566 0
		outer loop
			vertex 101.11804962158203 24.90210723876953 0
			vertex 100.81250762939453 24.975433349609375 5
			vertex 101.11804962158203 24.90210723876953 5
		endloop
	endfacet
	facet normal 0.3827058021606501 0.9238702663212912 0
		outer loop
			vertex 101.40805053710938 24.7819766998291 0
			vertex 101.11804962158203 24.90210723876953 5
			vertex 101.40805053710938 24.7819766998291 5
		endloop
	endfacet
	facet normal 0 0 1
		outer loop
			vertex 100.5 21.000690460205078 5
			vertex 102.5 23.000690460205078 5
			vertex 100.47543334960938 21.312509536743164 5
		endloop
	endfacet
	facet normal 0 0 1
		outer loop
			vertex 100.11797332763672 22.17565155029297 5
			vertex 102.5 23.000690460205078 5
			vertex 99.91364288330078 22.414785385131836 5
		endloop
	endfacet
	facet normal 0 0 1
		outer loop
			vertex 100.47543334960938 21.312509536743164 5
			vertex 102.5 23.000690460205078 5
			vertex 100.40210723876953 21.618051528930664 5
		endloop
	endfacet
	facet normal 0 0 1
		outer loop
			vertex 100.40210723876953 21.618051528930664 5
			vertex 102.5 23.000690460205078 5
			vertex 100.28197479248047 21.908052444458008 5
		endloop
	endfacet
	facet normal 0 0 1
		outer loop
			vertex 100.28197479248047 21.908052444458008 5
			vertex 102.5 23.000690460205078 5
			vertex 100.11797332763672 22.17565155029297 5
		endloop
	endfacet
	facet normal 0 0 1
		outer loop
			vertex 99.91364288330078 22.414785385131836 5
			vertex 100.5 25 5
			vertex 99.67565155029297 22.61797523498535 5
		endloop
	endfacet
	facet normal 0 0 1
		outer loop
			vertex 98.5 23 5
			vertex 98.81250762939453 22.975433349609375 5
			vertex 100.5 25 5
		endloop
	endfacet
	facet normal 0 0 1
		outer loop
			vertex 98.81250762939453 22.975433349609375 5
			vertex 99.11804962158203 22.90210723876953 5
			vertex 100.5 25 5
		endloop
	endfacet
	facet normal 0 0 1
		outer loop
			vertex 99.11804962158203 22.90210723876953 5
			vertex 99.40805053710938 22.7819766998291 5
			vertex 100.5 25 5
		endloop
	endfacet
	facet normal 0 0 1
		outer loop
			vertex 99.67565155029297 22.61797523498535 5
			vertex 100.5 25 5
			vertex 99.40805053710938 22.7819766998291 5
		endloop
	endfacet
	facet normal 0 0 1
		outer loop
			vertex 99.91364288330078 22.414785385131836 5
			vertex 102.5 23.000690460205078 5
			vertex 100.5 25 5
		endloop
	endfacet
	facet normal 0 0 1
		outer loop
			vertex 102.5 23.000690460205078 5
			vertex 102.47543334960938 23.312509536743164 5
			vertex 100.5 25 5
		endloop
	endfacet
	facet normal 0 0 1
		outer loop
			vertex 102.47543334960938 23.312509536743164 5
			vertex 102.40210723876953 23.618051528930664 5
			vertex 100.5 25 5
		endloop
	endfacet
	facet normal 0 0 1
		outer loop
			vertex 102.40210723876953 23.618051528930664 5
			vertex 102.28197479248047 23.908052444458008 5
			vertex 100.5 25 5
		endloop
	endfacet
	facet normal 0 0 1
		outer loop
			vertex 100.5 25 5
			vertex 101.11804962158203 24.90210723876953 5
			vertex 100.81250762939453 24.975433349609375 5
		endloop
	endfacet
	facet normal 0 0 1
		outer loop
			vertex 102.28197479248047 23.908052444458008 5
			vertex 102.11797332763672 24.17565155029297 5
			vertex 100.5 25 5
		endloop
	endfacet
	facet normal 0 0 1
		outer loop
			vertex 102.11797332763672 24.17565155029297 5
			vertex 101.91364288330078 24.414785385131836 5
			vertex 100.5 25 5
		endloop
	endfacet
	facet normal 0 0 1
		outer loop
			vertex 100.5 25 5
			vertex 101.67565155029297 24.61797523498535 5
			vertex 101.40805053710938 24.7819766998291 5
		endloop
	endfacet
	facet normal 0 0 1
		outer loop
			vertex 100.5 25 5
			vertex 101.91364288330078 24.414785385131836 5
			vertex 101.67565155029297 24.61797523498535 5
		endloop
	endfacet
	facet normal 0 0 1
		outer loop
			vertex 100.5 25 5
			vertex 101.40805053710938 24.7819766998291 5
			vertex 101.11804962158203 24.90210723876953 5
		endloop
	endfacet
	facet normal 0 0 1
		outer loop
			vertex -99.67565155029297 -22.61797523498535 2
			vertex -98.5 -23 2
			vertex -99.91364288330078 -22.414785385131836 2
		endloop
	endfacet
	facet normal 0 0 1
		outer loop
			vertex -99.91364288330078 -22.414785385131836 2
			vertex -98.5 -23 2
			vertex -100.11797332763672 -22.17565155029297 2
		endloop
	endfacet
	facet normal 0 0 1
		outer loop
			vertex -100.11797332763672 -22.17565155029297 2
			vertex -98.5 -23 2
			vertex -100.28197479248047 -21.908052444458008 2
		endloop
	endfacet
	facet normal 0 0 1
		outer loop
			vertex -100.28197479248047 -21.908052444458008 2
			vertex -98.5 -23 2
			vertex -100.40210723876953 -21.618051528930664 2
		endloop
	endfacet
	facet normal 0 0 1
		outer loop
			vertex -98.5 -23 2
			vertex -100.47543334960938 -21.312509536743164 2
			vertex -100.40210723876953 -21.618051528930664 2
		endloop
	endfacet
	facet normal 0 0 1
		outer loop
			vertex -99.40805053710938 -22.7819766998291 2
			vertex -99.11804962158203 -22.90210723876953 2
			vertex -98.5 -23 2
		endloop
	endfacet
	facet normal 0 0 1
		outer loop
			vertex -99.11804962158203 -22.90210723876953 2
			vertex -98.81250762939453 -22.975433349609375 2
			vertex -98.5 -23 2
		endloop
	endfacet
	facet normal 0 0 1
		outer loop
			vertex -99.40805053710938 -22.7819766998291 2
			vertex -98.5 -23 2
			vertex -99.67565155029297 -22.61797523498535 2
		endloop
	endfacet
	facet normal 0 0 1
		outer loop
			vertex -98.5 -23 2
			vertex -100.5 -21.000690460205078 2
			vertex -100.47543334960938 -21.312509536743164 2
		endloop
	endfacet
	facet normal 0 0 1
		outer loop
			vertex -98.5 -23 2
			vertex 100.5 21.000690460205078 2
			vertex -100.5 -21.000690460205078 2
		endloop
	endfacet
	facet normal 0.38270580216065014 0.9238702663212912 0
		outer loop
			vertex -99.40805053710938 -22.7819766998291 2
			vertex -99.40805053710938 -22.7819766998291 5
			vertex -99.11804962158203 -22.90210723876953 2
		endloop
	endfacet
	facet normal 0.5225341268521093 0.852618370828886 0
		outer loop
			vertex -99.40805053710938 -22.7819766998291 2
			vertex -99.67565155029297 -22.61797523498535 2
			vertex -99.67565155029297 -22.61797523498535 5
		endloop
	endfacet
	facet normal 0.6493113952948442 0.7605226570854171 0
		outer loop
			vertex -99.67565155029297 -22.61797523498535 2
			vertex -99.91364288330078 -22.414785385131836 2
			vertex -99.91364288330078 -22.414785385131836 5
		endloop
	endfacet
	facet normal 0.852616711510561 0.5225368343503808 0
		outer loop
			vertex -100.11797332763672 -22.17565155029297 2
			vertex -100.28197479248047 -21.908052444458008 2
			vertex -100.28197479248047 -21.908052444458008 5
		endloop
	endfacet
	facet normal 0.7602633009249536 0.6496150500617222 0
		outer loop
			vertex -99.91364288330078 -22.414785385131836 2
			vertex -100.11797332763672 -22.17565155029297 2
			vertex -100.11797332763672 -22.17565155029297 5
		endloop
	endfacet
	facet normal 0.23336101418138663 0.9723901670935565 0
		outer loop
			vertex -99.11804962158203 -22.90210723876953 2
			vertex -99.11804962158203 -22.90210723876953 5
			vertex -98.81250762939453 -22.975433349609375 2
		endloop
	endfacet
	facet normal 0.07836958291769637 0.9969243745005468 0
		outer loop
			vertex -98.81250762939453 -22.975433349609375 2
			vertex -98.81250762939453 -22.975433349609375 5
			vertex -98.5 -23 2
		endloop
	endfacet
	facet normal 0.9238681178988855 0.3827109885147944 0
		outer loop
			vertex -100.28197479248047 -21.908052444458008 2
			vertex -100.40210723876953 -21.618051528930664 2
			vertex -100.40210723876953 -21.618051528930664 5
		endloop
	endfacet
	facet normal 0.9723901670935565 0.23336101418138663 0
		outer loop
			vertex -100.40210723876953 -21.618051528930664 2
			vertex -100.47543334960938 -21.312509536743164 2
			vertex -100.47543334960938 -21.312509536743164 5
		endloop
	endfacet
	facet normal 0.9969108393752677 0.0785415707514142 0
		outer loop
			vertex -100.47543334960938 -21.312509536743164 2
			vertex -100.5 -21.000690460205078 2
			vertex -100.5 -21.000690460205078 5
		endloop
	endfacet
	facet normal 0.5225341268521093 0.852618370828886 0
		outer loop
			vertex -99.40805053710938 -22.7819766998291 2
			vertex -99.67565155029297 -22.61797523498535 5
			vertex -99.40805053710938 -22.7819766998291 5
		endloop
	endfacet
	facet normal 0.6493113952948442 0.7605226570854171 0
		outer loop
			vertex -99.67565155029297 -22.61797523498535 2
			vertex -99.91364288330078 -22.414785385131836 5
			vertex -99.67565155029297 -22.61797523498535 5
		endloop
	endfacet
	facet normal 0.7602633009249536 0.6496150500617222 0
		outer loop
			vertex -99.91364288330078 -22.414785385131836 2
			vertex -100.11797332763672 -22.17565155029297 5
			vertex -99.91364288330078 -22.414785385131836 5
		endloop
	endfacet
	facet normal 0.852616711510561 0.5225368343503808 0
		outer loop
			vertex -100.11797332763672 -22.17565155029297 2
			vertex -100.28197479248047 -21.908052444458008 5
			vertex -100.11797332763672 -22.17565155029297 5
		endloop
	endfacet
	facet normal 0.23336101418138663 0.9723901670935565 0
		outer loop
			vertex -98.81250762939453 -22.975433349609375 2
			vertex -99.11804962158203 -22.90210723876953 5
			vertex -98.81250762939453 -22.975433349609375 5
		endloop
	endfacet
	facet normal 0.38270580216065014 0.9238702663212912 0
		outer loop
			vertex -99.11804962158203 -22.90210723876953 2
			vertex -99.40805053710938 -22.7819766998291 5
			vertex -99.11804962158203 -22.90210723876953 5
		endloop
	endfacet
	facet normal 0.07836958291769637 0.9969243745005468 0
		outer loop
			vertex -98.5 -23 2
			vertex -98.81250762939453 -22.975433349609375 5
			vertex -98.5 -23 5
		endloop
	endfacet
	facet normal 0.9238681178988855 0.3827109885147944 0
		outer loop
			vertex -100.28197479248047 -21.908052444458008 2
			vertex -100.40210723876953 -21.618051528930664 5
			vertex -100.28197479248047 -21.908052444458008 5
		endloop
	endfacet
	facet normal 0.9723901670935565 0.23336101418138663 0
		outer loop
			vertex -100.40210723876953 -21.618051528930664 2
			vertex -100.47543334960938 -21.312509536743164 5
			vertex -100.40210723876953 -21.618051528930664 5
		endloop
	endfacet
	facet normal 0.9969108393752677 0.0785415707514142 0
		outer loop
			vertex -100.47543334960938 -21.312509536743164 2
			vertex -100.5 -21.000690460205078 5
			vertex -100.47543334960938 -21.312509536743164 5
		endloop
	endfacet
	facet normal 1 0 0
		outer loop
			vertex -100.5 -21.000690460205078 2
			vertex -100.5 21.000690460205078 5
			vertex -100.5 -21.000690460205078 5
		endloop
	endfacet
	facet normal 0 1 0
		outer loop
			vertex -98.5 -23 2
			vertex -98.5 -23 5
			vertex 98.5 -23 2
		endloop
	endfacet
	facet normal 0 0 1
		outer loop
			vertex -100.5 21.000690460205078 2
			vertex -98.5 23 2
			vertex -100.47543334960938 21.312509536743164 2
		endloop
	endfacet
	facet normal 0 0 1
		outer loop
			vertex -100.47543334960938 21.312509536743164 2
			vertex -98.5 23 2
			vertex -100.40210723876953 21.618051528930664 2
		endloop
	endfacet
	facet normal 0 0 1
		outer loop
			vertex -100.40210723876953 21.618051528930664 2
			vertex -98.5 23 2
			vertex -100.28197479248047 21.908052444458008 2
		endloop
	endfacet
	facet normal 0 0 1
		outer loop
			vertex -100.28197479248047 21.908052444458008 2
			vertex -98.5 23 2
			vertex -100.11797332763672 22.17565155029297 2
		endloop
	endfacet
	facet normal 0 0 1
		outer loop
			vertex -100.11797332763672 22.17565155029297 2
			vertex -98.5 23 2
			vertex -99.91364288330078 22.414785385131836 2
		endloop
	endfacet
	facet normal 0 0 1
		outer loop
			vertex -99.91364288330078 22.414785385131836 2
			vertex -98.5 23 2
			vertex -99.67565155029297 22.61797523498535 2
		endloop
	endfacet
	facet normal 0 0 1
		outer loop
			vertex -99.67565155029297 22.61797523498535 2
			vertex -98.5 23 2
			vertex -99.40805053710938 22.7819766998291 2
		endloop
	endfacet
	facet normal 0 0 1
		outer loop
			vertex -99.40805053710938 22.7819766998291 2
			vertex -98.5 23 2
			vertex -99.11804962158203 22.90210723876953 2
		endloop
	endfacet
	facet normal 0 0 1
		outer loop
			vertex -99.11804962158203 22.90210723876953 2
			vertex -98.5 23 2
			vertex -98.81250762939453 22.975433349609375 2
		endloop
	endfacet
	facet normal 0 0 1
		outer loop
			vertex -100.5 -21.000690460205078 2
			vertex 98.5 23 2
			vertex -100.5 21.000690460205078 2
		endloop
	endfacet
	facet normal 0 0 1
		outer loop
			vertex -100.5 21.000690460205078 2
			vertex 98.5 23 2
			vertex -98.5 23 2
		endloop
	endfacet
	facet normal 1 0 0
		outer loop
			vertex -100.5 -21.000690460205078 2
			vertex -100.5 21.000690460205078 2
			vertex -100.5 21.000690460205078 5
		endloop
	endfacet
	facet normal 0.9969108393752677 -0.0785415707514142 0
		outer loop
			vertex -100.5 21.000690460205078 2
			vertex -100.47543334960938 21.312509536743164 2
			vertex -100.47543334960938 21.312509536743164 5
		endloop
	endfacet
	facet normal 0.9723901670935565 -0.23336101418138663 0
		outer loop
			vertex -100.47543334960938 21.312509536743164 2
			vertex -100.40210723876953 21.618051528930664 2
			vertex -100.40210723876953 21.618051528930664 5
		endloop
	endfacet
	facet normal 0.9238681178988855 -0.3827109885147944 0
		outer loop
			vertex -100.40210723876953 21.618051528930664 2
			vertex -100.28197479248047 21.908052444458008 2
			vertex -100.28197479248047 21.908052444458008 5
		endloop
	endfacet
	facet normal 0.852616711510561 -0.5225368343503808 0
		outer loop
			vertex -100.28197479248047 21.908052444458008 2
			vertex -100.11797332763672 22.17565155029297 2
			vertex -100.11797332763672 22.17565155029297 5
		endloop
	endfacet
	facet normal 0.7602633009249536 -0.6496150500617222 0
		outer loop
			vertex -100.11797332763672 22.17565155029297 2
			vertex -99.91364288330078 22.414785385131836 2
			vertex -99.91364288330078 22.414785385131836 5
		endloop
	endfacet
	facet normal 0.6493113952948442 -0.7605226570854171 0
		outer loop
			vertex -99.91364288330078 22.414785385131836 2
			vertex -99.67565155029297 22.61797523498535 2
			vertex -99.67565155029297 22.61797523498535 5
		endloop
	endfacet
	facet normal 0.5225341268521093 -0.852618370828886 0
		outer loop
			vertex -99.67565155029297 22.61797523498535 2
			vertex -99.40805053710938 22.7819766998291 2
			vertex -99.40805053710938 22.7819766998291 5
		endloop
	endfacet
	facet normal 0.38270580216065014 -0.9238702663212912 0
		outer loop
			vertex -99.40805053710938 22.7819766998291 2
			vertex -99.11804962158203 22.90210723876953 2
			vertex -99.11804962158203 22.90210723876953 5
		endloop
	endfacet
	facet normal 0.23336101418138663 -0.9723901670935565 0
		outer loop
			vertex -99.11804962158203 22.90210723876953 2
			vertex -98.81250762939453 22.975433349609375 2
			vertex -98.81250762939453 22.975433349609375 5
		endloop
	endfacet
	facet normal 0.07836958291769637 -0.9969243745005468 0
		outer loop
			vertex -98.81250762939453 22.975433349609375 2
			vertex -98.5 23 2
			vertex -98.5 23 5
		endloop
	endfacet
	facet normal 0.9969108393752677 -0.0785415707514142 0
		outer loop
			vertex -100.5 21.000690460205078 2
			vertex -100.47543334960938 21.312509536743164 5
			vertex -100.5 21.000690460205078 5
		endloop
	endfacet
	facet normal 0.9723901670935565 -0.23336101418138663 0
		outer loop
			vertex -100.47543334960938 21.312509536743164 2
			vertex -100.40210723876953 21.618051528930664 5
			vertex -100.47543334960938 21.312509536743164 5
		endloop
	endfacet
	facet normal 0.9238681178988855 -0.3827109885147944 0
		outer loop
			vertex -100.40210723876953 21.618051528930664 2
			vertex -100.28197479248047 21.908052444458008 5
			vertex -100.40210723876953 21.618051528930664 5
		endloop
	endfacet
	facet normal 0.852616711510561 -0.5225368343503808 0
		outer loop
			vertex -100.28197479248047 21.908052444458008 2
			vertex -100.11797332763672 22.17565155029297 5
			vertex -100.28197479248047 21.908052444458008 5
		endloop
	endfacet
	facet normal 0.7602633009249536 -0.6496150500617222 0
		outer loop
			vertex -100.11797332763672 22.17565155029297 2
			vertex -99.91364288330078 22.414785385131836 5
			vertex -100.11797332763672 22.17565155029297 5
		endloop
	endfacet
	facet normal 0.6493113952948442 -0.7605226570854171 0
		outer loop
			vertex -99.91364288330078 22.414785385131836 2
			vertex -99.67565155029297 22.61797523498535 5
			vertex -99.91364288330078 22.414785385131836 5
		endloop
	endfacet
	facet normal 0.5225341268521093 -0.852618370828886 0
		outer loop
			vertex -99.67565155029297 22.61797523498535 2
			vertex -99.40805053710938 22.7819766998291 5
			vertex -99.67565155029297 22.61797523498535 5
		endloop
	endfacet
	facet normal 0.38270580216065014 -0.9238702663212912 0
		outer loop
			vertex -99.40805053710938 22.7819766998291 2
			vertex -99.11804962158203 22.90210723876953 5
			vertex -99.40805053710938 22.7819766998291 5
		endloop
	endfacet
	facet normal 0.23336101418138663 -0.9723901670935565 0
		outer loop
			vertex -99.11804962158203 22.90210723876953 2
			vertex -98.81250762939453 22.975433349609375 5
			vertex -99.11804962158203 22.90210723876953 5
		endloop
	endfacet
	facet normal 0.07836958291769637 -0.9969243745005468 0
		outer loop
			vertex -98.81250762939453 22.975433349609375 2
			vertex -98.5 23 5
			vertex -98.81250762939453 22.975433349609375 5
		endloop
	endfacet
	facet normal 0 -1 0
		outer loop
			vertex -98.5 23 2
			vertex 98.5 23 5
			vertex -98.5 23 5
		endloop
	endfacet
	facet normal 0 0 1
		outer loop
			vertex -98.5 -23 2
			vertex 98.5 -23 2
			vertex 100.5 -21.000690460205078 2
		endloop
	endfacet
	facet normal 0 0 1
		outer loop
			vertex -98.5 -23 2
			vertex 100.5 -21.000690460205078 2
			vertex 100.5 21.000690460205078 2
		endloop
	endfacet
	facet normal 0 0 1
		outer loop
			vertex 98.5 -23 2
			vertex 98.81250762939453 -22.975433349609375 2
			vertex 99.11804962158203 -22.90210723876953 2
		endloop
	endfacet
	facet normal 0 0 1
		outer loop
			vertex 98.5 -23 2
			vertex 99.11804962158203 -22.90210723876953 2
			vertex 99.40805053710938 -22.7819766998291 2
		endloop
	endfacet
	facet normal 0 0 1
		outer loop
			vertex 98.5 -23 2
			vertex 99.40805053710938 -22.7819766998291 2
			vertex 99.67565155029297 -22.61797523498535 2
		endloop
	endfacet
	facet normal 0 0 1
		outer loop
			vertex 98.5 -23 2
			vertex 99.67565155029297 -22.61797523498535 2
			vertex 99.91364288330078 -22.414785385131836 2
		endloop
	endfacet
	facet normal 0 0 1
		outer loop
			vertex 98.5 -23 2
			vertex 99.91364288330078 -22.414785385131836 2
			vertex 100.11797332763672 -22.17565155029297 2
		endloop
	endfacet
	facet normal 0 0 1
		outer loop
			vertex 98.5 -23 2
			vertex 100.11797332763672 -22.17565155029297 2
			vertex 100.28197479248047 -21.908052444458008 2
		endloop
	endfacet
	facet normal 0 0 1
		outer loop
			vertex 98.5 -23 2
			vertex 100.28197479248047 -21.908052444458008 2
			vertex 100.40210723876953 -21.618051528930664 2
		endloop
	endfacet
	facet normal 0 0 1
		outer loop
			vertex 98.5 -23 2
			vertex 100.40210723876953 -21.618051528930664 2
			vertex 100.47543334960938 -21.312509536743164 2
		endloop
	endfacet
	facet normal 0 0 1
		outer loop
			vertex 98.5 -23 2
			vertex 100.47543334960938 -21.312509536743164 2
			vertex 100.5 -21.000690460205078 2
		endloop
	endfacet
	facet normal 0 1 0
		outer loop
			vertex -98.5 -23 5
			vertex 98.5 -23 5
			vertex 98.5 -23 2
		endloop
	endfacet
	facet normal -0.07836958291769637 0.9969243745005468 0
		outer loop
			vertex 98.5 -23 2
			vertex 98.5 -23 5
			vertex 98.81250762939453 -22.975433349609375 2
		endloop
	endfacet
	facet normal -0.23336101418138663 0.9723901670935565 0
		outer loop
			vertex 98.81250762939453 -22.975433349609375 2
			vertex 98.81250762939453 -22.975433349609375 5
			vertex 99.11804962158203 -22.90210723876953 2
		endloop
	endfacet
	facet normal -0.38270580216065014 0.9238702663212912 0
		outer loop
			vertex 99.11804962158203 -22.90210723876953 2
			vertex 99.11804962158203 -22.90210723876953 5
			vertex 99.40805053710938 -22.7819766998291 2
		endloop
	endfacet
	facet normal -0.5225341268521093 0.852618370828886 0
		outer loop
			vertex 99.40805053710938 -22.7819766998291 2
			vertex 99.40805053710938 -22.7819766998291 5
			vertex 99.67565155029297 -22.61797523498535 2
		endloop
	endfacet
	facet normal -0.6493113952948442 0.7605226570854171 0
		outer loop
			vertex 99.67565155029297 -22.61797523498535 2
			vertex 99.67565155029297 -22.61797523498535 5
			vertex 99.91364288330078 -22.414785385131836 2
		endloop
	endfacet
	facet normal -0.7602633009249536 0.6496150500617222 0
		outer loop
			vertex 99.91364288330078 -22.414785385131836 2
			vertex 99.91364288330078 -22.414785385131836 5
			vertex 100.11797332763672 -22.17565155029297 2
		endloop
	endfacet
	facet normal -0.852616711510561 0.5225368343503808 0
		outer loop
			vertex 100.11797332763672 -22.17565155029297 2
			vertex 100.11797332763672 -22.17565155029297 5
			vertex 100.28197479248047 -21.908052444458008 2
		endloop
	endfacet
	facet normal -0.9238681178988855 0.3827109885147944 0
		outer loop
			vertex 100.28197479248047 -21.908052444458008 2
			vertex 100.28197479248047 -21.908052444458008 5
			vertex 100.40210723876953 -21.618051528930664 2
		endloop
	endfacet
	facet normal -0.9723901670935565 0.23336101418138663 0
		outer loop
			vertex 100.40210723876953 -21.618051528930664 2
			vertex 100.40210723876953 -21.618051528930664 5
			vertex 100.47543334960938 -21.312509536743164 2
		endloop
	endfacet
	facet normal -0.9969108393752677 0.0785415707514142 0
		outer loop
			vertex 100.47543334960938 -21.312509536743164 2
			vertex 100.47543334960938 -21.312509536743164 5
			vertex 100.5 -21.000690460205078 2
		endloop
	endfacet
	facet normal -0.07836958291769637 0.9969243745005468 0
		outer loop
			vertex 98.81250762939453 -22.975433349609375 2
			vertex 98.5 -23 5
			vertex 98.81250762939453 -22.975433349609375 5
		endloop
	endfacet
	facet normal -0.23336101418138663 0.9723901670935565 0
		outer loop
			vertex 99.11804962158203 -22.90210723876953 2
			vertex 98.81250762939453 -22.975433349609375 5
			vertex 99.11804962158203 -22.90210723876953 5
		endloop
	endfacet
	facet normal -0.38270580216065014 0.9238702663212912 0
		outer loop
			vertex 99.40805053710938 -22.7819766998291 2
			vertex 99.11804962158203 -22.90210723876953 5
			vertex 99.40805053710938 -22.7819766998291 5
		endloop
	endfacet
	facet normal -0.5225341268521093 0.852618370828886 0
		outer loop
			vertex 99.67565155029297 -22.61797523498535 2
			vertex 99.40805053710938 -22.7819766998291 5
			vertex 99.67565155029297 -22.61797523498535 5
		endloop
	endfacet
	facet normal -0.6493113952948442 0.7605226570854171 0
		outer loop
			vertex 99.91364288330078 -22.414785385131836 2
			vertex 99.67565155029297 -22.61797523498535 5
			vertex 99.91364288330078 -22.414785385131836 5
		endloop
	endfacet
	facet normal -0.7602633009249536 0.6496150500617222 0
		outer loop
			vertex 100.11797332763672 -22.17565155029297 2
			vertex 99.91364288330078 -22.414785385131836 5
			vertex 100.11797332763672 -22.17565155029297 5
		endloop
	endfacet
	facet normal -0.852616711510561 0.5225368343503808 0
		outer loop
			vertex 100.28197479248047 -21.908052444458008 2
			vertex 100.11797332763672 -22.17565155029297 5
			vertex 100.28197479248047 -21.908052444458008 5
		endloop
	endfacet
	facet normal -0.9238681178988855 0.3827109885147944 0
		outer loop
			vertex 100.40210723876953 -21.618051528930664 2
			vertex 100.28197479248047 -21.908052444458008 5
			vertex 100.40210723876953 -21.618051528930664 5
		endloop
	endfacet
	facet normal -0.9723901670935565 0.23336101418138663 0
		outer loop
			vertex 100.47543334960938 -21.312509536743164 2
			vertex 100.40210723876953 -21.618051528930664 5
			vertex 100.47543334960938 -21.312509536743164 5
		endloop
	endfacet
	facet normal -0.9969108393752677 0.0785415707514142 0
		outer loop
			vertex 100.5 -21.000690460205078 2
			vertex 100.47543334960938 -21.312509536743164 5
			vertex 100.5 -21.000690460205078 5
		endloop
	endfacet
	facet normal -1 0 0
		outer loop
			vertex 100.5 -21.000690460205078 2
			vertex 100.5 -21.000690460205078 5
			vertex 100.5 21.000690460205078 2
		endloop
	endfacet
	facet normal 0 0 1
		outer loop
			vertex -100.5 -21.000690460205078 2
			vertex 100.5 21.000690460205078 2
			vertex 98.5 23 2
		endloop
	endfacet
	facet normal 0 0 1
		outer loop
			vertex 100.5 21.000690460205078 2
			vertex 100.47543334960938 21.312509536743164 2
			vertex 98.5 23 2
		endloop
	endfacet
	facet normal 0 0 1
		outer loop
			vertex 98.5 23 2
			vertex 99.67565155029297 22.61797523498535 2
			vertex 99.40805053710938 22.7819766998291 2
		endloop
	endfacet
	facet normal 0 0 1
		outer loop
			vertex 98.5 23 2
			vertex 99.11804962158203 22.90210723876953 2
			vertex 98.81250762939453 22.975433349609375 2
		endloop
	endfacet
	facet normal 0 0 1
		outer loop
			vertex 98.5 23 2
			vertex 99.40805053710938 22.7819766998291 2
			vertex 99.11804962158203 22.90210723876953 2
		endloop
	endfacet
	facet normal 0 0 1
		outer loop
			vertex 100.47543334960938 21.312509536743164 2
			vertex 100.40210723876953 21.618051528930664 2
			vertex 98.5 23 2
		endloop
	endfacet
	facet normal 0 0 1
		outer loop
			vertex 100.40210723876953 21.618051528930664 2
			vertex 100.28197479248047 21.908052444458008 2
			vertex 98.5 23 2
		endloop
	endfacet
	facet normal 0 0 1
		outer loop
			vertex 98.5 23 2
			vertex 100.28197479248047 21.908052444458008 2
			vertex 100.11797332763672 22.17565155029297 2
		endloop
	endfacet
	facet normal 0 0 1
		outer loop
			vertex 98.5 23 2
			vertex 100.11797332763672 22.17565155029297 2
			vertex 99.91364288330078 22.414785385131836 2
		endloop
	endfacet
	facet normal 0 0 1
		outer loop
			vertex 98.5 23 2
			vertex 99.91364288330078 22.414785385131836 2
			vertex 99.67565155029297 22.61797523498535 2
		endloop
	endfacet
	facet normal 0 -1 0
		outer loop
			vertex -98.5 23 2
			vertex 98.5 23 2
			vertex 98.5 23 5
		endloop
	endfacet
	facet normal -1 0 0
		outer loop
			vertex 100.5 -21.000690460205078 5
			vertex 100.5 21.000690460205078 5
			vertex 100.5 21.000690460205078 2
		endloop
	endfacet
	facet normal -0.9969108393752677 -0.0785415707514142 0
		outer loop
			vertex 100.5 21.000690460205078 2
			vertex 100.5 21.000690460205078 5
			vertex 100.47543334960938 21.312509536743164 2
		endloop
	endfacet
	facet normal -0.9723901670935565 -0.23336101418138663 0
		outer loop
			vertex 100.47543334960938 21.312509536743164 2
			vertex 100.47543334960938 21.312509536743164 5
			vertex 100.40210723876953 21.618051528930664 2
		endloop
	endfacet
	facet normal -0.9238681178988855 -0.3827109885147944 0
		outer loop
			vertex 100.40210723876953 21.618051528930664 2
			vertex 100.40210723876953 21.618051528930664 5
			vertex 100.28197479248047 21.908052444458008 2
		endloop
	endfacet
	facet normal -0.07836958291769637 -0.9969243745005468 0
		outer loop
			vertex 98.5 23 2
			vertex 98.81250762939453 22.975433349609375 2
			vertex 98.81250762939453 22.975433349609375 5
		endloop
	endfacet
	facet normal -0.23336101418138663 -0.9723901670935565 0
		outer loop
			vertex 98.81250762939453 22.975433349609375 2
			vertex 99.11804962158203 22.90210723876953 2
			vertex 99.11804962158203 22.90210723876953 5
		endloop
	endfacet
	facet normal -0.7602633009249536 -0.6496150500617222 0
		outer loop
			vertex 100.11797332763672 22.17565155029297 2
			vertex 100.11797332763672 22.17565155029297 5
			vertex 99.91364288330078 22.414785385131836 2
		endloop
	endfacet
	facet normal -0.852616711510561 -0.5225368343503808 0
		outer loop
			vertex 100.28197479248047 21.908052444458008 2
			vertex 100.28197479248047 21.908052444458008 5
			vertex 100.11797332763672 22.17565155029297 2
		endloop
	endfacet
	facet normal -0.6493113952948442 -0.7605226570854171 0
		outer loop
			vertex 99.91364288330078 22.414785385131836 2
			vertex 99.91364288330078 22.414785385131836 5
			vertex 99.67565155029297 22.61797523498535 2
		endloop
	endfacet
	facet normal -0.5225341268521093 -0.852618370828886 0
		outer loop
			vertex 99.67565155029297 22.61797523498535 2
			vertex 99.67565155029297 22.61797523498535 5
			vertex 99.40805053710938 22.7819766998291 2
		endloop
	endfacet
	facet normal -0.38270580216065014 -0.9238702663212912 0
		outer loop
			vertex 99.11804962158203 22.90210723876953 2
			vertex 99.40805053710938 22.7819766998291 2
			vertex 99.40805053710938 22.7819766998291 5
		endloop
	endfacet
	facet normal -0.9969108393752677 -0.0785415707514142 0
		outer loop
			vertex 100.47543334960938 21.312509536743164 2
			vertex 100.5 21.000690460205078 5
			vertex 100.47543334960938 21.312509536743164 5
		endloop
	endfacet
	facet normal -0.9723901670935565 -0.23336101418138663 0
		outer loop
			vertex 100.40210723876953 21.618051528930664 2
			vertex 100.47543334960938 21.312509536743164 5
			vertex 100.40210723876953 21.618051528930664 5
		endloop
	endfacet
	facet normal -0.9238681178988855 -0.3827109885147944 0
		outer loop
			vertex 100.28197479248047 21.908052444458008 2
			vertex 100.40210723876953 21.618051528930664 5
			vertex 100.28197479248047 21.908052444458008 5
		endloop
	endfacet
	facet normal -0.07836958291769637 -0.9969243745005468 0
		outer loop
			vertex 98.5 23 2
			vertex 98.81250762939453 22.975433349609375 5
			vertex 98.5 23 5
		endloop
	endfacet
	facet normal -0.38270580216065014 -0.9238702663212912 0
		outer loop
			vertex 99.11804962158203 22.90210723876953 2
			vertex 99.40805053710938 22.7819766998291 5
			vertex 99.11804962158203 22.90210723876953 5
		endloop
	endfacet
	facet normal -0.23336101418138663 -0.9723901670935565 0
		outer loop
			vertex 98.81250762939453 22.975433349609375 2
			vertex 99.11804962158203 22.90210723876953 5
			vertex 98.81250762939453 22.975433349609375 5
		endloop
	endfacet
	facet normal -0.852616711510561 -0.5225368343503808 0
		outer loop
			vertex 100.11797332763672 22.17565155029297 2
			vertex 100.28197479248047 21.908052444458008 5
			vertex 100.11797332763672 22.17565155029297 5
		endloop
	endfacet
	facet normal -0.7602633009249536 -0.6496150500617222 0
		outer loop
			vertex 99.91364288330078 22.414785385131836 2
			vertex 100.11797332763672 22.17565155029297 5
			vertex 99.91364288330078 22.414785385131836 5
		endloop
	endfacet
	facet normal -0.6493113952948442 -0.7605226570854171 0
		outer loop
			vertex 99.67565155029297 22.61797523498535 2
			vertex 99.91364288330078 22.414785385131836 5
			vertex 99.67565155029297 22.61797523498535 5
		endloop
	endfacet
	facet normal -0.5225341268521093 -0.852618370828886 0
		outer loop
			vertex 99.40805053710938 22.7819766998291 2
			vertex 99.67565155029297 22.61797523498535 5
			vertex 99.40805053710938 22.7819766998291 5
		endloop
	endfacet
endsolid exported
